<svg xmlns="http://www.w3.org/2000/svg" width="424" height="713"><path stroke-width="0.5px" fill="rgba(0,0,0,0)" stroke="#ffffff" fill-rule="evenodd" d="M190 12.924c-14.775 3.328-23.589 6.894-40.5 16.384-9.789 5.494-25.604 17.04-34.807 25.41-3.194 2.905-6.134 5.282-6.534 5.282s-1.525 1.35-2.5 3-2.422 3-3.216 3c-.793 0-1.443.415-1.443.923 0 .507-2.022 3.144-4.494 5.86-5.244 5.763-17.073 21.831-20.803 28.259C55.582 135.714 38.601 177.534 24.963 226c-6.525 23.185-12.809 58.223-14.976 83.5-.566 6.6-1.582 17.4-2.258 24-1.893 18.484-1.548 54.963.624 66 2.551 12.96 6.11 24.327 11.854 37.857 5.267 12.405 8.346 18.067 22.373 41.143 17.669 29.066 23.862 44.304 26.824 66 .3 2.2 1.047 15.25 1.658 29 1.67 37.531 4.925 52.934 16.161 76.456 10.411 21.797 21.341 33.965 37.277 41.501 10.515 4.972 16.182 6.616 34.47 10 28.755 5.322 57.044 6.399 85.03 3.239 48.655-5.495 69.429-15.571 84.931-41.196 15.475-25.582 20.846-44.385 22.562-79 1.939-39.096 3.259-50.012 7.678-63.5 3.483-10.629 6.48-16.279 25.992-49 30.654-51.404 37.744-88.159 29.803-154.5-6.133-51.233-12.838-83.195-25.802-123-3.641-11.177-9.135-26.377-11.205-31-.493-1.1-1.768-4.25-2.835-7-6.397-16.499-20.638-46.555-25.347-53.5-1.306-1.925-2.64-4.175-2.965-5-1.636-4.155-24.674-32.231-31.312-38.159-.55-.491-3.925-3.569-7.5-6.839s-6.984-5.959-7.576-5.974-2.166-1.219-3.5-2.675c-3.531-3.856-19.98-14.359-31.695-20.238C245.363 14.146 231.97 10.936 211 11.117c-8.64.075-16.2.726-21 1.807m2 3.015c-11.124 2.31-16.146 4.1-30 10.698-33.151 15.788-58.613 37.317-78.413 66.302-8.503 12.448-23.3 42.65-33.591 68.561C25.156 224.049 9.869 300.978 9.758 364c-.031 17.728.337 23.578 2.102 33.347 4.325 23.948 12.629 43.309 33.091 77.153 22.482 37.185 27.279 50.88 29.077 83 2.796 49.956 3.444 55.062 9.129 72 3.72 11.084 11.334 27.338 16.169 34.517 10.549 15.666 26.192 26.283 46.174 31.34 26.304 6.658 64.56 9.392 92.644 6.621 15.565-1.535 38.337-5.802 47.452-8.89 15.691-5.317 29.301-15.151 37.32-26.968 8.224-12.118 17.611-33.744 21.104-48.62 2.133-9.087 3.965-29.839 4.011-45.45.091-30.783 7.565-59.137 21.76-82.55 26.313-43.402 31.76-54.306 38.237-76.546 5.411-18.581 6.307-27.457 5.687-56.365-1.107-51.641-11.802-112.549-28.726-163.589-11.225-33.852-30.708-77.872-42.49-96-11.131-17.127-28.755-36.389-44.07-48.167-15.538-11.95-39.879-25.181-54.602-29.681-17.915-5.475-35.637-6.574-51.827-3.213m7 12.006c-23.582 5.544-46.906 15.945-63.5 28.317-26.779 19.965-45.829 46.909-68.044 96.238-14.981 33.268-22.945 57.454-26.835 81.5-1.439 8.895-2.351 18.332-7.688 79.5-2.981 34.169-3.662 72.709-1.54 87.122 2.956 20.066 7.926 35.406 15.619 48.203 2.207 3.671 8.764 13.425 14.572 21.675 19.154 27.209 24.438 36.435 29.442 51.4 3.677 10.996 4.424 20.38 5.937 74.6.507 18.15 1.415 34.979 2.018 37.399.603 2.419 2.659 7.782 4.57 11.917 6.473 14.012 22.25 26.401 40.892 32.111 35.32 10.82 103.051 10.629 135.425-.382 23.805-8.097 37.225-20.551 43.69-40.545 1.539-4.761 1.871-11.275 2.469-48.5.74-46.011.908-47.672 6.679-65.981 5.083-16.126 9.367-23.606 32.525-56.788 5.285-7.573 11.394-17.023 13.575-21 10.1-18.415 15.194-43.029 15.194-73.416 0-12.76-3.448-63.495-6.003-88.315a2078 2078 0 0 1-2.016-21c-4.067-45.008-14.265-79.573-36.735-124.5-22.955-45.9-41.464-68.97-70.068-87.334-14.443-9.272-35.889-17.911-54.917-22.122-10.981-2.429-15.278-2.446-25.261-.099m-1.578 4.1c-10.555 2.436-27.999 8.7-37.422 13.438C117.563 66.818 90.957 102.319 60.686 178c-15.422 38.557-19.162 62.1-25.178 158.5-4.496 72.036-.36 91.248 28.095 130.5 17.64 24.333 25.505 38.146 30.82 54.127 4.615 13.878 5.5 22.997 6.15 63.373.301 18.7.953 37.701 1.448 42.225 2.425 22.152 15.651 37.466 40.402 46.782 9.041 3.403 31.62 7.096 52.281 8.552 25.715 1.812 56.842-.634 77.741-6.108 26.903-7.046 42.057-20.399 48.177-42.451 1.418-5.109 1.684-12.091 1.794-47 .123-39.138.235-41.452 2.453-50.943 4.508-19.291 11.271-34.271 23.157-51.294 32.19-46.102 35.892-53.608 39.899-80.893 2.702-18.401 2.716-40.684.046-73.747-6.903-85.478-8.04-94.883-14.384-118.997-9.884-37.571-28.324-78.181-51.141-112.626-19.456-29.371-44.677-49.046-77.53-60.481-21.691-7.55-32.9-8.842-47.494-5.474m-.922 14.903c-33.807 10.64-55.682 23.138-76.113 43.488-17.495 17.425-28.539 35.05-41.395 66.064-14.817 35.742-22.557 68.266-24.988 105-2.003 30.265-4.95 55.035-10.651 89.5-4.413 26.677-4.782 41.777-1.417 57.923 4.384 21.035 10.733 33.481 30.706 60.193 19.921 26.645 24.06 33.701 29.367 50.075 3.952 12.193 5.654 25.395 7.001 54.309 1.475 31.635 4.04 43.72 12.113 57.066 17.067 28.215 59.029 45.991 100.377 42.523 39.454-3.31 71.085-21.544 83.905-48.37 6.34-13.268 7.967-23.469 9.526-59.719 1.868-43.438 6.974-57.297 34.95-94.863 9.274-12.453 18.002-25.383 20.927-31 7.221-13.869 11.643-29.162 13.679-47.307.706-6.285-.733-18.137-6.049-49.83-5.322-31.726-6.876-45.298-8.473-74-.566-10.175-1.936-24.35-3.045-31.5-6.122-39.492-23.986-91.095-40.581-117.226-22.274-35.073-56.811-59.987-100.845-72.748-11.19-3.243-17.649-3.149-28.994.422m-2 4.425c-18.346 6.29-28.516 10.812-42.5 18.895-17.205 9.944-34.75 25.983-44.444 40.63-29.267 44.217-46.432 97.228-50.06 154.602-1.498 23.68-5.039 52.923-10.534 87-3.732 23.143-4.46 33.811-3.075 45.097 3.15 25.665 10.467 41.404 33.012 71.008 17.612 23.127 25.248 36.775 29.955 53.54 3.208 11.424 4.48 23.043 6.223 56.841 1.878 36.419 6.191 47.71 24.972 65.378 19.249 18.108 52.261 27.666 85.555 24.772 16.34-1.421 29.565-5.002 43.28-11.72 10.047-4.921 12.395-6.593 20-14.246 9.865-9.927 14.228-16.764 18.147-28.44 3.705-11.038 4.744-19.045 6.002-46.23 2.315-50.018 6.789-62.128 38.057-103 18.443-24.108 25.812-39.615 29.433-61.942 2.867-17.68 2.038-29.88-4.39-64.558-4.057-21.886-6.002-38.474-7.147-60.941-1.118-21.942-1.474-25.623-4.069-42.059-5.061-32.053-18.259-73.835-31.881-100.929-11.691-23.252-32.521-47.002-53.457-60.952-21.48-14.312-48.147-25.033-64.079-25.763-8.224-.377-9.862-.116-19 3.017m2 16.772c-15.853 2.021-36.161 9.022-50.618 17.45-22.512 13.123-43.048 38.223-52.822 64.559-5.145 13.863-9.132 36.636-10.566 60.346-1.7 28.116-8.699 65.56-16.998 90.93-7.445 22.764-12.967 49.575-14.121 68.57-1.151 18.948 2.725 37.137 10.761 50.509 4.19 6.97 20.495 29.342 36.255 49.743 16.75 21.683 26.283 46.012 29.091 74.248.328 3.3.983 17.925 1.457 32.5.838 25.835.934 26.702 3.812 34.535 6.571 17.882 17.499 28.921 38.989 39.383 10.012 4.875 18.547 7.667 30.519 9.986 9.435 1.827 9.836 1.826 19.165-.039 16.467-3.292 32.658-9.786 44.607-17.891 7.035-4.771 16.813-15.199 20.74-22.116 5.752-10.131 6.355-13.81 7.763-47.358 1.584-37.754 3.536-50.734 10.131-67.387 5.912-14.928 13.904-28.445 24.111-40.782 7.524-9.094 19.237-24.861 26.618-35.831 12.998-19.318 17.008-31.139 16.958-50-.051-19.784-5.079-48.251-12.919-73.146-9.14-29.022-15.068-58.726-17.933-89.854-4.093-44.464-7.63-60.84-17.344-80.307-8.113-16.258-19.532-30.023-34.177-41.196C260.6 72.582 230.2 63.85 196.5 68.145m-3.855 3.954c-43.026 6.285-82.217 39.037-96.804 80.901-4.917 14.112-6.769 25.038-9.408 55.5-3.133 36.178-7.617 60.679-17.383 95-3.265 11.475-10.185 40.981-12.548 53.5-4.301 22.798-.049 48.098 11.176 66.485 3.294 5.397 18.1 24.982 34.407 45.515 16.246 20.456 25.269 43.025 28.384 71 .765 6.875 1.682 22.625 2.038 35s1.25 25.475 1.987 29.11c2.114 10.425 7.555 20.088 15.93 28.293 11.102 10.875 24.49 17.926 44.076 23.215 14.07 3.799 20.121 3.638 36-.963 32.121-9.306 50.269-23.622 57.072-45.021 2.416-7.598 2.645-10.047 3.472-37.134 1.236-40.485 4.311-56.683 14.986-78.943 5.358-11.175 9.618-17.465 25.101-37.066 17.477-22.127 29.869-41.267 33.156-51.213 5.195-15.718 5.654-23.505 2.727-46.306-2.546-19.837-4.848-30.472-11.141-51.472-10.603-35.386-15.461-60.288-18.377-94.217-3.182-37.02-6.985-54.915-15.789-74.283-13.985-30.764-51.814-59.799-86.707-66.549-8.219-1.59-32.499-1.792-42.355-.352m2.876 9.031c-3.838 1.094-10.642 3.705-15.119 5.803-22.438 10.515-34.727 24.681-37.443 43.16-1.779 12.101-4.86 22.03-8.348 26.892-2.877 4.013-5.537 6.44-18.406 16.795-5.236 4.213-11.089 12.481-14.38 20.315-3.982 9.477-6.531 30.991-7.808 65.905-1.256 34.327-3.845 48.514-12.594 69-7.436 17.413-10.44 28.908-12.393 47.424-1.365 12.944-.354 21.038 4.072 32.619 4.935 12.91 11.188 21.49 18.343 25.168 5.394 2.774 12.528 1.974 20.785-2.331 15.598-8.133 15.29-8.013 17.998-6.983 4.405 1.674 4.796 5.051 4.523 39.122-.285 35.709.295 40.35 7.301 58.481 2.125 5.5 4.363 12.25 4.972 15 1.811 8.174 1.337 20.988-1.183 32-1.711 7.473-2.273 12.906-2.223 21.5.144 25.15 6.779 36.015 28.544 46.744 29.051 14.32 49.725 14.377 78.453.217 13.763-6.783 19.744-11.53 23.709-18.815 5.738-10.543 7.298-30.887 3.629-47.355-4.272-19.182-3.411-32.506 3.185-49.291 7.76-19.745 9.651-34.994 7.874-63.5-1.369-21.971-.606-30.192 3.085-33.243 2.744-2.269 5.606-1.582 14.152 3.398 11.693 6.814 18.39 8.276 25.089 5.477 4.66-1.947 7.824-5.192 12.318-12.632 17.067-28.258 16.659-49.243-1.888-97-9.318-23.995-9.902-27.934-11.813-79.775-1.102-29.858-2.492-39.888-7.001-50.488-5.163-12.141-10.829-18.983-23.977-28.953-11.375-8.626-13.736-13.173-16.444-31.665-2.683-18.327-9.751-29.547-24.853-39.449-8.623-5.654-23.982-12.665-31.873-14.549-7.399-1.767-22.281-1.271-30.286 1.009m4.592 2.415c-23.416 5.08-39.533 16.403-48.336 33.961-3.325 6.632-4.471 10.388-6.19 20.289-1.634 9.406-5.785 19.082-10.481 24.432-1.754 1.998-6.92 6.588-11.479 10.201-12.971 10.279-19.426 20.566-21.694 34.572C100.04 218.691 98 244.914 98 257.555c0 30.414-3.663 49.718-14.489 76.362-11.727 28.863-13.917 50.444-7.312 72.061 3.86 12.633 11.92 23.842 18.577 25.837 5.061 1.516 10.031.088 21.559-6.196 11.567-6.306 16.688-6.14 20.404.661 1.583 2.897 1.759 6.681 1.761 37.72.001 38.686-.216 37.173 9.052 63 5.297 14.759 5.757 25.239 1.929 43.928-2.343 11.44-2.664 14.919-2.166 23.5 1.327 22.878 6.83 30.705 29.185 41.511 14.237 6.883 20.627 8.435 35 8.504 14.589.069 21.803-1.642 36-8.54 20.123-9.776 25.253-16.159 28.051-34.903 1.689-11.314 1.473-15.096-1.71-30-2.503-11.722-2.708-26.891-.49-36.2.878-3.685 3.159-10.573 5.067-15.306 7.001-17.363 7.542-22.643 6.597-64.494-.522-23.119.148-28.21 4.211-31.996 3.257-3.034 8.266-2.544 15.774 1.545 11.335 6.172 15.051 7.618 19.58 7.618 10.09 0 16.241-7.881 24.096-30.872 3.154-9.231 3.681-12.026 3.632-19.295-.096-14.483-3.876-30.359-11.969-50.276C329.69 305.516 328.2 297.398 326.995 259c-1.115-35.518-1.55-41.128-3.994-51.597-3.883-16.63-10.326-26.489-24.158-36.967-13.607-10.307-16.915-16.13-20.238-35.617-3.392-19.887-16.613-36.347-36.755-45.756-14.129-6.6-28.186-8.458-41.737-5.518m3.387 5.32c-15.159 2.763-26.903 14.904-30.872 31.915-1.901 8.149-1.224 13.708 3.401 27.927 4.463 13.719 4.587 14.745 2.431 20.023-1.843 4.511-6.291 8.004-20.734 16.284-23.821 13.657-27.836 20.82-36.706 65.486-4.991 25.134-7.587 35.331-12.379 48.63-7.725 21.436-8.658 25.238-12.112 49.37-1.416 9.9-3.527 21.6-4.69 26-4.002 15.14-2.564 28.001 3.884 34.732 8.611 8.99 21.839 5.93 25.304-5.853.894-3.04 2.015-4.483 4.271-5.5 6.038-2.722 6.921-5.208 7.835-22.07 1.17-21.593 2.06-25.187 10.346-41.809 6.659-13.359 8.998-20.576 11.506-35.5 3.482-20.723 5.34-25.606 7.229-19 2.623 9.17-.441 24.692-8.349 42.29-4.669 10.393-6.789 16.982-8.391 26.091-2.119 12.047-1.846 20.436 1.426 43.86A5140 5140 0 0 1 151.954 429c2.201 16.852 4.041 28.675 6.536 42 1.737 9.272 1.888 22.179.322 27.5-.647 2.2-1.16 8.29-1.14 13.534.033 8.666.455 10.76 4.643 23 9.147 26.74 9.696 34.801 4.189 61.509-3.716 18.021-3.753 21.482-.295 27.216 4.823 7.997 17.658 11.273 44.791 11.432 40.285.237 51.801-6.685 48.107-28.913-.711-4.278-2.192-11.592-3.291-16.254-1.426-6.048-1.979-11.777-1.932-20 .071-12.375 1.529-19.085 8.151-37.524 4.075-11.346 5.065-25.172 2.565-35.812-2.151-9.157-2.027-13.437.84-28.969 4.547-24.627 9.964-63.438 13.64-97.719 1.431-13.345-.328-24.599-6.23-39.868-12.378-32.02-14.66-41.999-11.352-49.634l1.733-3.998 1.344 3.144c.739 1.729 2.307 8.929 3.484 16 2.739 16.452 5.921 26.57 11.962 38.024 7.385 14.003 8.978 20.227 9.957 38.9 1.012 19.286 2.117 22.78 7.987 25.246 2.208.927 4.019 2.331 4.025 3.12.005.789.937 3.35 2.07 5.69 5.089 10.513 19.23 10.562 25.368.088 4.358-7.436 5.049-12.841 3.162-24.752-.911-5.753-2.502-14.06-3.536-18.46-1.033-4.4-2.166-12.05-2.516-17-.97-13.721-3.11-23.079-10.522-46-7.686-23.77-12.577-42.727-17.027-65.999-5.36-28.037-13.334-39.664-34.489-50.291-15.155-7.613-20.489-13.028-20.496-20.804-.002-2.251 1.655-8.776 3.683-14.5 3.233-9.123 3.695-11.586 3.75-19.981.061-9.311-.055-9.813-4.192-18.162-5.01-10.111-11.505-16.594-19.696-19.659-5.978-2.236-17.949-3.351-24.049-2.239m-4.276 4.55c-11.307 3.674-19.109 13.166-22.861 27.814-2.029 7.92-1.372 13.461 3.114 26.271 3.829 10.932 4.52 18.671 2.088 23.375-2.342 4.529-8.468 9.363-20.518 16.191-13.212 7.487-21.19 14.309-24.598 21.035-3.5 6.907-6.853 19.219-11.492 42.203-5.117 25.352-7.924 36.005-13.049 49.505-7.244 19.086-8.99 25.375-10.035 36.141-1.204 12.402-3.926 29.548-6.914 43.55-1.207 5.656-1.948 12.013-1.705 14.635.931 10.032 7.767 17.493 15.143 16.527 5.48-.719 7.936-3.558 8.575-9.912.518-5.153.593-5.256 4.028-5.578 6.69-.627 7.51-2.712 8.521-21.672.918-17.206 2.799-24.455 11.026-42.5 5.147-11.291 10.142-27.686 14.47-47.5 1.202-5.5 2.86-11.067 3.686-12.37 1.466-2.315 1.544-2.327 3.357-.5 2.889 2.91 5.161 17.805 3.822 25.05-1.211 6.553-6.257 22.117-8.857 27.32-2.526 5.055-6.753 18.538-7.974 25.434-1.759 9.932-1.244 24.061 1.426 39.106 1.363 7.678 2.92 19.81 3.46 26.96 1.264 16.74 4.246 37.706 7.608 53.5 2.762 12.977 2.769 13.345.62 34-1.267 12.174.103 21.925 5.167 36.762 7.761 22.74 8.346 33.645 3.043 56.738-4.642 20.215-3.62 27.313 4.528 31.436 4.598 2.327 6.807 2.765 22.681 4.502 11.289 1.235 15.131 1.238 28 .028 17.985-1.692 21.53-2.627 26.205-6.911 3.288-3.013 3.634-3.853 3.987-9.677.279-4.61-.363-9.428-2.318-17.378-3.236-13.162-4.346-31.265-2.499-40.779.664-3.422 3.28-12.296 5.814-19.721 4.147-12.154 4.645-14.597 4.996-24.5.299-8.437-.07-13.041-1.583-19.76l-1.973-8.761 3.847-17.739c3.96-18.264 6.102-32.394 10.42-68.74 5.354-45.079 5.008-48.092-9.47-82.446-4.867-11.547-5.283-13.174-5.76-22.537-.388-7.591-.113-11.475 1.107-15.674 4.27-14.687 8.9-6.828 14.232 24.157 1.981 11.51 4.747 19.54 11.022 32 7.437 14.768 9.379 22.42 10.277 40.5.909 18.29 2.334 21.5 9.546 21.5 2.38 0 2.566.331 2.566 4.566 0 5.6 1.185 7.961 4.98 9.924 6.614 3.42 12.904.514 16.942-7.829 3.035-6.27 2.751-15.629-.943-31.086-1.661-6.952-3.481-17.463-4.043-23.357-1.563-16.382-3.554-24.921-11.008-47.218-6.657-19.911-11.392-37.89-15.935-60.5-6.745-33.566-10.823-39.977-33.342-52.417-13.261-7.325-18.972-12-21.134-17.301-2.27-5.563-1.909-8.661 2.606-22.418 3.739-11.394 4.081-13.279 3.675-20.289-.795-13.743-8.29-26.115-19.298-31.855-4.242-2.212-6.516-2.652-15-2.901-6.569-.193-11.467.183-14.276 1.096M203 98.098c-4.827 1.403-11.038 5.834-13.686 9.764-1.218 1.807-2.482 5.389-2.811 7.961s-1.477 6.602-2.55 8.954c-2.787 6.103-2.501 8.446 2.564 21.048 5.827 14.496 6.956 19.705 5.468 25.229-2.483 9.221-7.38 12.863-24.885 18.507-19.675 6.342-24.149 12.874-31.131 45.439-5.25 24.486-7.739 33.091-14.467 50-4.865 12.227-5.748 15.717-9.367 37-2.198 12.925-6.092 32.275-8.655 43-5 20.931-5.271 25.508-1.99 33.691.924 2.304 2.846 4.955 4.273 5.889 2.506 1.642 2.657 1.619 4.529-.69 1.638-2.021 1.865-3.517 1.47-9.682-.511-7.98 1.108-18.331 2.963-18.95.646-.215 2.301 1.833 3.678 4.551 2.242 4.424 4.118 6.191 6.572 6.191 1.864 0 1.867-3.531.011-11.276-3.622-15.105-2.447-22.197 6.918-41.786 8.173-17.092 11.223-26.609 11.839-36.938.454-7.61.956-9.338 4.797-16.5 4.297-8.014 8.423-20.09 10.46-30.618.598-3.091 1.709-6.466 2.469-7.5 1.317-1.793 1.43-1.754 2.421.84 1.163 3.046 5.273 21.064 7.591 33.278 3.111 16.389 1.539 28.574-6.044 46.851-11.487 27.685-13.473 38.319-11.589 62.028 1.799 22.619 5.63 44.161 13.737 77.239 3.559 14.522 3.631 15.196 2.968 27.882-.747 14.298.305 25.616 3.486 37.5 5.947 22.214 7.19 30.804 6.66 46-.31 8.885-1.511 20.281-3.102 29.428-1.429 8.211-2.597 15.318-2.597 15.796s1.076 1.943 2.391 3.258c2.31 2.31 2.774 2.373 13.75 1.878 16.918-.763 17.562-1.387 13.78-13.36-1.968-6.233-2.042-8.489-1.806-55 .212-41.846.001-50.352-1.541-62-1.885-14.234-1.726-20.315.918-35.062 3.671-20.48 5.63-36.67 6.426-53.101.832-17.171 1.246-19.837 3.08-19.837 1.212 0 1.85 5.58 2.998 26.202.984 17.679 2.82 31.865 5.599 43.26 2.486 10.194 2.902 30.231.935 45.038-1.433 10.794-1.705 20.474-1.598 57.041.128 43.732-.132 48.229-3.46 59.959-.312 1.1.062 2.859.833 3.908 1.174 1.601 3.378 2.051 13.665 2.788 10.659.765 12.593.665 14.765-.758 2.815-1.845 2.806-3.448-.114-19.008-2.678-14.276-3.796-32.444-2.672-43.403 1.12-10.916 3.444-23.17 5.596-29.507 4.353-12.821 5.359-23.232 4.064-42.02-.744-10.778-.656-11.485 4.327-35 2.798-13.2 5.568-26.025 6.157-28.5s2.166-10.088 3.503-16.917c7.023-35.851 5.946-47.066-8.047-83.85-9.82-25.814-10.271-33.585-3.669-63.233 3.97-17.827 5.314-22.148 6.515-20.933.236.238 2.667 7.633 5.404 16.433s6.595 19.6 8.575 24c2.384 5.296 3.61 9.521 3.626 12.5.05 9.392 4.773 24.013 13.568 42 2.824 5.775 5.691 12.75 6.371 15.5 1.644 6.653 1.463 17.714-.403 24.5-1.928 7.013-1.928 9.912.001 10.653 2.058.789 4.79-1.835 6.989-6.711 3.324-7.372 4.487-4.175 6.205 17.058.745 9.207.848 9.509 3.321 9.797 3.283.383 5.232-1.888 7.441-8.67 2.61-8.015 1.631-16.8-5.305-47.627-3.341-14.85-6.831-31.454-7.754-36.898-1.763-10.387-3.432-16.087-10.717-36.602-4.3-12.109-8.028-26.211-13.193-49.913-3.014-13.826-6.933-22.557-12.698-28.288-3.497-3.476-6.05-4.857-13.326-7.213-18.406-5.96-23.303-8.92-26.61-16.086-2.24-4.853-2.343-9.952-.372-18.312 1.39-5.898 6.438-17.498 8.546-19.638 1.591-1.615 1.034-7.604-.968-10.415-1.048-1.471-2.228-4.916-2.623-7.655-.888-6.146-2.922-11.265-5.619-14.136-4.989-5.309-20.514-8.671-28.854-6.246"/></svg>