<svg width="200" height="200" xmlns="http://www.w3.org/2000/svg" xmlns:xlink="http://www.w3.org/1999/xlink" xml:space="preserve" overflow="hidden"><defs><clipPath id="clip0"><rect x="0" y="0" width="200" height="200"/></clipPath><clipPath id="clip1"><rect x="0" y="0" width="200" height="200"/></clipPath><clipPath id="clip2"><rect x="0" y="0" width="199" height="199"/></clipPath><clipPath id="clip3"><rect x="-1" y="0" width="200" height="199"/></clipPath></defs><g clip-path="url(#clip0)"><g clip-path="url(#clip1)"><g clip-path="url(#clip2)"><g clip-path="url(#clip3)"><path d="M140.344 40.5074C140.223 40.7042 139.912 40.7841 139.655 40.6854 139.397 40.5864 139.187 40.6516 139.187 40.8296 139.187 41.008 139.563 41.1539 140.023 41.1539 140.544 41.1539 140.86 40.9641 140.86 40.652 140.86 40.0631 140.654 40.0056 140.344 40.5074M0.0264322 112.109C0.000669168 115.563 0.0214134 115.664 0.920107 116.453 1.42633 116.898 1.96869 117.221 2.12595 117.171 2.2832 117.122 2.76768 117.496 3.20297 118.003 3.80255 118.7 4.30175 118.926 5.25966 118.934 6.21959 118.942 6.599 119.115 6.83455 119.651 7.00519 120.039 7.5693 120.642 8.08824 120.989 8.60718 121.337 9.03244 121.791 9.03277 121.999 9.03344 122.206 9.27534 122.576 9.57045 122.821 9.86555 123.066 10.2383 123.612 10.3985 124.033 10.5588 124.455 10.9198 124.8 11.2002 124.8 11.4873 124.8 11.7104 125.092 11.7104 125.469 11.7104 125.837 11.855 126.138 12.032 126.138 12.6158 126.138 13.7892 127.617 14.621 129.4 15.0713 130.366 15.5428 131.157 15.6682 131.157 16.1484 131.157 18.6835 133.808 18.9177 134.555 19.0529 134.987 19.4437 135.698 19.7866 136.137 20.1296 136.576 20.4096 137.063 20.4096 137.22 20.4096 137.577 22.4128 140.875 22.991 141.469 23.2275 141.712 23.4209 142.026 23.4209 142.166 23.4209 142.305 23.8003 142.623 24.2637 142.871 24.7599 143.136 24.96 143.413 24.7499 143.542 24.5153 143.687 24.5705 143.91 24.9108 144.193 25.1955 144.429 25.4284 144.858 25.4284 145.145 25.4284 145.433 25.7556 146.017 26.1558 146.443 26.6102 146.926 26.7202 147.217 26.4496 147.217 26.1243 147.217 26.1093 147.33 26.3883 147.666 26.5931 147.913 26.6634 148.213 26.5439 148.332 26.4245 148.452 26.8019 149.003 27.3824 149.558 27.9632 150.113 28.4075 150.679 28.3701 150.816 28.2643 151.203 29.4832 153.377 29.9644 153.66 30.2012 153.799 30.4994 154.401 30.6268 154.998 30.7546 155.595 31.024 156.288 31.2254 156.538 31.7474 157.184 32.4082 158.327 32.6558 159.011 32.7722 159.333 32.9857 159.597 33.1302 159.597 33.6833 159.597 34.4458 162.256 34.5686 164.615L34.6295 165.786 32.7893 165.793C30.4562 165.8 29.7562 166.181 30.1504 167.23 30.3107 167.656 30.5944 167.91 30.7814 167.794 30.9684 167.679 31.2114 167.82 31.3218 168.107 31.4322 168.395 31.7323 168.63 31.9886 168.63 32.4383 168.63 32.5975 169.43 32.5223 171.307 32.4701 172.611 32.1234 174.712 31.9009 175.072 31.7902 175.251 31.8839 175.511 32.1087 175.65 32.4232 175.844 32.3944 176.141 31.9842 176.934 31.6908 177.501 31.4509 178.274 31.4509 178.651 31.4509 179.029 31.3004 179.337 31.1163 179.337 30.9323 179.337 30.7817 179.714 30.7817 180.174 30.7817 180.684 30.5914 181.01 30.2929 181.01 30.0062 181.01 29.6562 181.558 29.4474 182.333 29.2514 183.061 28.8693 183.878 28.5983 184.15 28.0505 184.697 27.9311 185.172 28.4166 184.872 28.5879 184.766 28.8288 184.843 28.9522 185.042 29.0754 185.242 28.8924 185.479 28.5451 185.57 28.0556 185.698 27.8993 186.081 27.8468 187.283 27.81 188.134 27.6387 188.971 27.4667 189.143 27.2944 189.315 27.2281 189.65 27.3188 189.887 27.4098 190.124 27.1723 190.417 26.7908 190.538 26.4097 190.659 26.0976 191.02 26.0976 191.341 26.0976 191.661 25.8804 192.216 25.6154 192.573 25.3501 192.93 25.2156 193.56 25.3163 193.972 25.4461 194.504 25.3187 194.79 24.8783 194.958 24.1837 195.222 23.6979 195.654 19.3942 199.843 17.7323 201.461 16.2273 202.694 16.0493 202.584 15.871 202.474 15.7245 202.581 15.7231 202.822 15.7198 203.443 13.5038 204.88 13.015 204.578 12.7908 204.439 12.6975 204.468 12.8055 204.643 12.9129 204.816 12.5221 205.162 11.9373 205.411 11.3524 205.661 10.5561 206.151 10.168 206.5 9.25025 207.327 6.02252 208.562 6.02252 208.086 6.02252 207.89 5.78596 207.966 5.49688 208.255 5.20747 208.544 4.69121 208.781 4.3496 208.781 4.00798 208.781 3.52083 208.988 3.26722 209.242 2.82858 209.68 0.784265 210.318 0.250938 210.182 0.112755 210.148 2.9717e-15 213.52 2.9717e-15 217.677L2.9717e-15 225.235 1.03219 224.366C1.59965 223.889 2.2019 223.583 2.37053 223.687 2.53883 223.791 2.6827 223.679 2.69039 223.438 2.70244 223.055 5.49555 221.495 6.16873 221.495 6.30624 221.495 6.81916 221.189 7.30799 220.816 9.01069 219.515 10.1004 218.645 11.1326 217.763 11.7038 217.275 12.745 216.687 13.4463 216.455 14.1476 216.224 14.7217 215.932 14.7217 215.806 14.7217 215.681 15.3216 215.398 16.0547 215.179 16.7878 214.959 17.5459 214.484 17.7393 214.122 17.9327 213.761 18.3586 213.465 18.6859 213.465 19.0131 213.465 19.7134 213.013 20.2423 212.461 20.7713 211.909 21.4268 211.457 21.6991 211.457 21.9715 211.457 22.0913 211.355 21.9655 211.229 21.8397 211.103 22.1793 210.814 22.7199 210.587 23.706 210.172 24.7756 208.781 24.1085 208.781 23.6016 208.781 23.9412 206.214 24.5759 205.245 24.877 204.786 25.2671 204.499 25.4431 204.607 25.6191 204.716 25.763 204.577 25.763 204.297 25.763 204.017 26.3652 203.231 27.1013 202.551 27.8374 201.87 28.4397 201.046 28.4397 200.721 28.4397 200.396 28.7006 199.868 29.0198 199.549 29.339 199.23 29.6104 198.805 29.6231 198.605 29.6836 197.658 30.22 196.431 30.6446 196.268 30.9042 196.169 31.1163 195.857 31.1163 195.575 31.1163 195.293 31.2669 195.063 31.4509 195.063 31.6349 195.063 31.7855 194.906 31.7855 194.714 31.7855 194.522 31.9341 194.183 32.1157 193.961 33.0432 192.826 34.7968 190.347 34.7968 190.171 34.7968 189.602 36.9518 186.75 37.2452 186.931 37.4527 187.059 37.5025 186.922 37.3721 186.582 37.1619 186.034 37.7066 184.374 38.2186 184.002 38.6274 183.705 38.7134 182.043 38.4598 179.337 38.3303 177.957 38.3393 176 38.4795 174.988 38.6294 173.906 38.603 172.984 38.4153 172.751 38.2085 172.493 38.2457 172.081 38.5217 171.579 39.0527 170.613 39.1698 169.943 38.8877 169.486 38.7676 169.292 38.7094 168.749 38.7586 168.28 38.8131 167.761 38.5826 167.188 38.1687 166.814 37.795 166.476 37.5869 166.041 37.706 165.848 38.0787 165.245 38.0529 163.612 37.6705 163.612 37.4701 163.611 37.2861 163.003 37.2616 162.259 37.2369 161.515 36.9649 160.628 36.657 160.288 36.3492 159.948 36.0504 159.314 35.9932 158.88 35.9357 158.446 35.7778 157.827 35.6416 157.506 35.5054 157.184 35.4833 156.688 35.5917 156.405 35.7042 156.113 35.5753 155.809 35.2929 155.7 35.0199 155.596 34.7968 155.332 34.7968 155.115 34.7968 154.897 34.507 154.151 34.153 153.457 33.4199 152.019 32.7876 150.307 32.8883 150.032 32.9258 149.93 32.7069 149.707 32.4021 149.536 32.0706 149.351 31.9147 148.97 32.0144 148.588 32.1254 148.165 31.8176 147.603 31.0973 146.915 30.501 146.345 30.1738 145.879 30.3699 145.879 30.7898 145.879 29.4675 143.157 28.8579 142.767 28.628 142.62 28.4397 141.98 28.4397 141.345 28.4397 140.542 28.2871 140.191 27.9378 140.191 27.6618 140.191 27.4359 139.976 27.4359 139.713 27.4359 139.45 27.2479 139.035 27.0177 138.792 26.1568 137.878 25.601 137.054 26.0139 137.302 26.2441 137.441 26.4322 137.399 26.4322 137.211 26.4322 137.023 26.131 136.707 25.763 136.51 25.3949 136.313 25.0938 135.955 25.0938 135.714 25.0938 135.473 24.7927 135.003 24.4246 134.67 24.0566 134.337 23.7555 133.947 23.7555 133.803 23.7555 133.658 23.3038 133.046 22.7517 132.441 22.1997 131.837 21.748 131.186 21.748 130.995 21.748 130.546 19.0974 127.811 18.6624 127.811 18.4798 127.811 18.4155 127.589 18.5196 127.318 18.6236 127.047 18.4517 126.629 18.1371 126.389 17.1715 125.65 15.6823 123.903 15.605 123.419 15.4979 122.747 14.4042 121.135 13.0571 119.664 11.0082 117.426 9.64439 116.101 9.39178 116.101 9.25728 116.101 8.33115 115.341 7.33409 114.412 6.33703 113.483 4.88493 112.428 4.10836 112.066 3.33146 111.705 2.5318 111.102 2.33138 110.727 2.08781 110.272 1.76192 110.111 1.35005 110.242 0.890663 110.388 0.646417 110.199 0.393136 109.505 0.123127 108.765 0.047511 109.302 0.0264322 112.109M315.644 121.17C315.765 124.957 315.897 125.037 323.041 125.685 323.593 125.735 325.099 125.885 326.387 126.018 327.675 126.152 330.235 126.287 332.075 126.32 333.915 126.352 336.249 126.552 337.261 126.765 338.273 126.977 340.738 127.227 342.739 127.32 344.74 127.412 346.478 127.55 346.601 127.626 346.725 127.703 347.817 127.851 349.029 127.957 351.467 128.168 354.564 129.06 357.262 130.328 358.233 130.784 360.266 131.556 361.779 132.042 365.334 133.186 368.127 134.232 368.528 134.57 368.703 134.717 369.096 134.837 369.402 134.837 370.111 134.837 373.731 138.238 373.731 138.904 373.731 139.18 374.107 139.759 374.567 140.191 375.027 140.623 375.404 141.129 375.404 141.315 375.404 141.5 375.729 142.325 376.127 143.147 376.587 144.097 376.898 145.494 376.981 146.981 377.052 148.268 377.422 150.221 377.803 151.321 378.577 153.559 378.423 154.606 376.875 157.623 376.44 158.47 376.164 159.242 376.261 159.339 376.358 159.436 375.979 160.293 375.419 161.244 374.858 162.194 374.4 163.266 374.4 163.626 374.4 163.986 374.249 164.281 374.065 164.281 373.881 164.281 373.731 164.501 373.731 164.771 373.731 165.04 373.429 165.422 373.061 165.619 372.693 165.816 372.392 166.161 372.392 166.386 372.392 166.867 368.845 170.33 367.482 171.179 366.962 171.503 366.234 172.078 365.863 172.457 365.133 173.205 364.154 173.877 363.358 174.178 363.082 174.282 362.631 174.504 362.355 174.671 360.489 175.804 356.289 177.677 356.006 177.502 355.817 177.386 355.663 177.417 355.663 177.572 355.663 177.727 355.211 178.121 354.659 178.447 354.107 178.774 353.656 178.946 353.656 178.83 353.656 178.715 353.419 178.857 353.13 179.146 352.84 179.435 352.313 179.672 351.957 179.672 351.601 179.672 350.52 180.057 349.555 180.528 348.59 180.999 346.897 181.689 345.793 182.06 344.689 182.431 343.559 182.821 343.283 182.927 343.007 183.032 342.631 183.153 342.447 183.195 342.263 183.237 341.058 183.579 339.77 183.955 333.497 185.788 326.486 186.98 324.482 186.554 323.874 186.425 322.849 186.256 322.205 186.18 321.311 186.069 320.418 185.945 319.528 185.81 318.7 185.683 317.9 185.609 317.75 185.644 317.6 185.68 316.852 185.54 316.088 185.335 314.834 184.997 312.125 184.622 310.829 184.607 310.553 184.604 310.101 184.409 309.825 184.175 309.549 183.939 308.495 183.502 307.483 183.202 306.471 182.902 305.191 182.499 304.639 182.306 303.97 182.078 303.292 181.875 302.607 181.699 302.042 181.557 300.762 180.976 299.763 180.407 297.556 179.149 295.056 177.913 294.601 177.855 293.313 177.69 291.88 177.159 291.322 176.638 290.959 176.3 289.742 175.564 288.617 175.004 287.492 174.443 286.044 173.655 285.4 173.254 284.756 172.852 283.477 172.149 282.556 171.691 281.636 171.233 280.335 170.433 279.664 169.912 278.994 169.391 278.347 168.965 278.228 168.965 278.109 168.965 277.829 168.812 277.607 168.626 277.385 168.439 276.337 167.729 275.279 167.049 274.221 166.368 273.274 165.557 273.176 165.246 273.078 164.936 272.636 164.591 272.196 164.481 271.079 164.201 270.344 163.377 270.344 162.409 270.344 161.867 270.088 161.489 269.591 161.297 268.178 160.751 265.713 157.317 265.58 155.71 265.54 155.228 265.316 154.76 265.082 154.67 264.848 154.58 264.656 154.333 264.656 154.121 264.656 153.908 264.281 153.33 263.823 152.836 263.364 152.341 263.115 151.859 263.27 151.764 264.413 151.057 262.452 144.849 260.083 141.675 257.323 137.976 251.363 135.946 249.186 137.964 248.721 138.395 248.237 139.073 248.111 139.469 247.985 139.866 247.742 140.191 247.57 140.191 247.398 140.191 247.258 140.699 247.258 141.32 247.258 142.304 247.13 142.475 246.264 142.648 245.718 142.757 244.97 143.148 244.602 143.515 243.934 144.184 243.934 144.184 244.676 145.617 245.084 146.405 245.506 147.125 245.614 147.217 245.721 147.309 246.617 148.501 247.604 149.865 249.493 152.476 250.713 153.909 251.049 153.909 251.159 153.909 251.678 154.323 252.202 154.829 252.726 155.335 253.807 156.276 254.604 156.919 255.401 157.562 256.432 158.692 256.896 159.428 258.546 162.051 262.607 166.07 265.381 167.827 266.055 168.254 266.704 168.76 266.823 168.951 266.941 169.143 267.281 169.3 267.577 169.3 267.874 169.3 268.389 169.546 268.722 169.848 269.206 170.286 269.426 170.314 269.82 169.987 270.513 169.412 271.35 169.749 275.196 172.146 277.036 173.294 279.05 174.515 279.673 174.861 281.661 175.966 282.037 176.206 282.664 176.774 283.002 177.079 283.475 177.33 283.717 177.33 283.958 177.33 284.337 177.578 284.559 177.881 284.781 178.185 285.377 178.477 285.883 178.531 286.389 178.585 286.978 178.867 287.19 179.157 287.403 179.448 288.015 179.765 288.551 179.863 289.087 179.96 289.938 180.333 290.443 180.692 290.946 181.051 291.566 181.345 291.818 181.345 292.071 181.345 292.612 181.579 293.021 181.866 293.43 182.152 293.765 182.309 293.765 182.214 293.765 182.061 296.265 183.175 297.864 184.039 300.26 185.335 302.664 186.309 304.017 186.533 304.727 186.65 305.609 186.875 305.977 187.033 307.348 187.62 310.299 188.463 311.464 188.599 312.127 188.677 313.045 188.871 313.505 189.031 315.215 189.623 325.674 190.883 326.196 190.56 326.331 190.477 327.784 190.319 329.426 190.21 333.153 189.962 336.3 189.666 340.439 189.174 341.36 189.065 342.489 188.939 342.949 188.895 344.365 188.758 345.431 188.307 346.068 187.575 346.404 187.189 346.855 186.857 347.072 186.837 348.16 186.735 348.302 186.661 348.302 186.196 348.302 185.92 348.52 185.694 348.787 185.694 349.054 185.694 349.676 185.165 350.169 184.518 350.837 183.642 351.174 183.432 351.489 183.694 351.87 184.01 354.43 183.034 356.667 181.72 357.434 181.27 359.845 180.257 359.845 180.385 359.845 180.448 360.41 180.15 361.1 179.724 361.79 179.297 362.357 179.073 362.36 179.226 362.363 179.379 362.475 179.346 362.611 179.152 362.746 178.959 363.415 178.541 364.097 178.223 364.779 177.906 365.428 177.5 365.539 177.321 365.649 177.142 365.979 176.995 366.271 176.995 367.72 176.995 374.512 171.121 377.155 167.583 378.218 166.159 380.088 162.767 380.088 162.261 380.088 162.051 380.479 161.464 380.958 160.956 381.76 160.107 383.062 157.047 383.088 155.952 383.103 155.299 386.112 149.081 386.478 148.946 386.644 148.884 386.779 148.639 386.779 148.401 386.779 148.163 386.98 147.801 387.226 147.597 387.472 147.393 388.023 146.547 388.45 145.716 388.877 144.885 389.352 144.206 389.505 144.206 389.657 144.206 390.146 143.629 390.591 142.924 391.036 142.219 391.984 141.052 392.699 140.331 393.413 139.61 394.346 138.493 394.772 137.849 395.199 137.205 396.228 136.157 397.059 135.52 397.891 134.884 398.39 134.302 398.169 134.229 397.661 134.059 399.424 132.161 400.089 132.161 400.347 132.161 400.942 131.86 401.41 131.492 401.878 131.124 402.511 130.822 402.818 130.822 403.124 130.822 403.522 130.676 403.701 130.496 403.881 130.316 404.873 129.902 405.907 129.574 407.669 129.016 409.126 128.949 414.383 129.185 415.119 129.218 417.27 129.154 419.163 129.043 421.057 128.932 422.971 128.98 423.418 129.15 423.926 129.343 424.304 129.338 424.428 129.136 424.554 128.933 424.885 128.95 425.319 129.183 425.914 129.501 427.01 129.662 429.69 129.825 430.012 129.844 430.275 129.964 430.275 130.09 430.275 130.217 431.141 130.336 432.199 130.355 436.371 130.429 441.862 130.75 442.673 130.967 443.953 131.311 445.394 129.786 445.143 128.354 444.913 127.042 444.554 126.679 443.402 126.594 442.899 126.557 442.488 126.514 442.488 126.497 442.488 126.481 440.907 126.403 438.975 126.324 435.08 126.165 434.253 126.051 432.785 125.468 429.506 124.167 427.872 124.017 416.641 123.991 412.363 123.981 408.862 123.876 408.862 123.758 408.862 123.64 407.433 123.588 405.686 123.642 403.861 123.699 402.424 123.601 402.308 123.413 401.953 122.839 400.406 122.419 397.823 122.195 394.507 121.907 384.634 121.928 377.746 122.237 370.291 122.572 367.546 122.584 365.366 122.291 364.354 122.155 362.622 122.041 361.518 122.038 359.708 122.033 358.806 122.046 355.501 122.123 354.952 122.135 354.379 122.27 354.227 122.422 354.074 122.574 353.319 122.584 352.548 122.443 351.777 122.302 350.469 122.239 349.641 122.302 346.263 122.56 340.977 122.471 338.934 122.121 337.738 121.917 336.232 121.699 335.588 121.636 332.112 121.3 328.463 120.691 326.387 120.099 322.693 119.046 319.723 118.447 319.481 118.706 319.358 118.838 319.204 119.246 319.138 119.614 318.981 120.485 317.611 120.575 317.166 119.744 316.984 119.405 316.548 118.973 316.197 118.785 315.588 118.46 315.561 118.576 315.644 121.17M387.365 141.792C387.043 141.859 386.779 142.128 386.779 142.39 386.779 142.933 387.076 142.988 387.74 142.566 388.356 142.176 388.097 141.642 387.365 141.792M322.874 335.851C322.874 335.996 323.175 336.137 323.543 336.165 323.911 336.193 324.212 336.074 324.212 335.902 324.212 335.729 323.911 335.588 323.543 335.588 323.175 335.588 322.874 335.706 322.874 335.851M323.883 336.899C323.886 337.006 324.015 337.295 324.171 337.54 324.389 337.885 324.492 337.84 324.622 337.345 324.726 336.944 324.618 336.703 324.334 336.703 324.083 336.703 323.88 336.791 323.883 336.899M322.917 338.516C323.629 339.423 324.005 339.603 324.282 339.167 324.699 338.511 324.581 338.154 324.084 338.567 323.727 338.863 323.576 338.834 323.425 338.441 323.317 338.16 323.056 337.93 322.843 337.93 322.579 337.93 322.603 338.115 322.917 338.516M365.305 407.027C365.209 407.122 361.684 407.213 357.47 407.23 352.813 407.248 348.725 407.435 347.047 407.708 345.529 407.954 343.196 408.163 341.861 408.172 338.906 408.192 336.218 408.378 331.478 408.894 329.494 409.109 327.78 409.195 327.67 409.085 327.56 408.975 327.18 409.041 326.825 409.231 326.47 409.421 324.269 409.575 321.933 409.573 317.871 409.571 315.579 409.748 309.658 410.524 308.186 410.717 304.13 410.957 300.646 411.057 297.162 411.158 294.172 411.327 294.001 411.432 293.83 411.538 293.571 411.431 293.425 411.195 293.216 410.858 292.845 410.845 291.705 411.134 290.463 411.45 287.058 411.809 283.205 412.031 282.642 412.063 282.016 412.192 281.814 412.317 281.613 412.442 280.191 412.634 278.656 412.744 277.121 412.855 274.208 413.239 272.184 413.598 266.926 414.532 262.646 415.213 262.378 415.159 262.251 415.134 261.921 415.202 261.645 415.311 260.975 415.575 255.586 416.242 253.28 416.346 252.268 416.391 251.176 416.549 250.855 416.696 250.533 416.843 250.028 416.871 249.733 416.758 249.439 416.645 248.475 416.946 247.591 417.427 244.803 418.944 245.335 421.116 248.583 421.483 249.793 421.619 256.188 420.784 258.299 420.213 258.943 420.039 260.599 419.839 261.979 419.768 263.36 419.697 264.865 419.538 265.325 419.415 265.785 419.292 267.134 419.13 268.324 419.054 269.513 418.979 271.262 418.756 272.211 418.559 273.16 418.362 274.069 418.236 274.232 418.278 274.394 418.32 275.43 418.246 276.534 418.113 277.672 417.976 279.025 418.015 279.657 418.203 280.518 418.459 280.697 418.442 280.441 418.131 280.186 417.822 280.962 417.709 283.775 417.646 288.201 417.546 291.219 418.33 292.565 419.93 293.017 420.467 293.547 420.907 293.743 420.907 293.939 420.907 294.1 421.021 294.1 421.16 294.1 421.299 294.513 421.597 295.02 421.822 295.935 422.229 299.218 424.794 299.07 424.988 299.028 425.043 299.252 425.484 299.569 425.968 300.395 427.228 300.43 427.578 300.655 436.647 300.83 443.731 300.785 445.035 300.323 446.14 300.028 446.844 299.787 447.917 299.787 448.524 299.787 449.13 299.568 450.053 299.299 450.574 299.03 451.095 298.408 452.425 297.917 453.529 297.425 454.633 296.732 455.95 296.375 456.457 296.018 456.963 295.811 457.377 295.913 457.377 296.264 457.377 294.03 461.225 292.223 463.734 290.528 466.087 289.782 466.97 286.288 470.762 285.523 471.59 284.561 472.72 284.148 473.271 281.581 476.698 280.781 477.473 275.53 481.626 274.61 482.354 273.782 483.032 273.69 483.132 273.598 483.232 272.92 483.613 272.184 483.979 271.448 484.346 270.771 484.732 270.679 484.838 270.371 485.192 265.628 487.492 265.209 487.49 265.052 487.49 264.45 487.709 263.87 487.978 263.29 488.247 262.364 488.535 261.812 488.62 261.26 488.704 260.808 488.796 260.808 488.825 260.808 488.854 260.432 488.945 259.972 489.027 259.512 489.109 258.488 489.478 257.697 489.848 256.906 490.217 256.109 490.427 255.926 490.314 255.743 490.201 255.412 490.253 255.189 490.43 254.968 490.606 253.858 490.91 252.725 491.105 251.591 491.301 250.085 491.75 249.379 492.105 248.672 492.459 247.916 492.686 247.699 492.608 247.481 492.531 247.135 492.782 246.929 493.166 246.633 493.719 246.264 493.853 245.15 493.813 242.454 493.716 241.094 493.839 241.419 494.153 242.055 494.766 247.668 495.122 249.767 494.682 250.319 494.566 251.298 494.427 251.942 494.372 252.586 494.317 253.791 494.175 254.619 494.055 255.447 493.936 256.651 493.788 257.295 493.728 258.761 493.59 265.453 491.481 265.604 491.11 265.666 490.959 266.146 490.835 266.672 490.835 267.198 490.835 267.717 490.691 267.826 490.515 267.934 490.339 268.245 490.28 268.515 490.384 268.785 490.487 269.006 490.402 269.006 490.195 269.006 489.987 269.42 489.635 269.926 489.413 270.432 489.191 270.921 488.92 271.013 488.811 271.39 488.367 277.626 484.478 277.962 484.478 278.162 484.478 278.6 484.137 278.935 483.721 279.712 482.756 282.527 480.463 282.935 480.463 283.105 480.463 283.529 480.124 283.877 479.71 286.216 476.929 288.278 474.592 288.471 474.504 288.596 474.447 289.367 473.732 290.184 472.915 291.001 472.098 291.817 471.429 291.997 471.429 292.177 471.429 292.597 470.827 292.928 470.091 293.26 469.355 293.673 468.753 293.845 468.753 294.31 468.753 297.774 464.998 297.587 464.696 297.499 464.553 297.732 464.273 298.105 464.073 298.478 463.874 298.784 463.508 298.784 463.261 298.784 463.014 298.995 462.637 299.253 462.423 299.511 462.208 299.817 461.653 299.934 461.187 300.051 460.722 300.645 459.843 301.254 459.234 302.453 458.034 302.949 457.142 302.826 456.408 302.783 456.152 302.884 455.851 303.052 455.739 303.538 455.416 306.126 450.114 306.336 449.012 306.354 448.92 306.542 448.424 306.756 447.91 306.969 447.396 307.241 446.568 307.36 446.07 307.48 445.572 307.843 444.635 308.166 443.988 308.49 443.34 308.848 442.224 308.962 441.507 309.077 440.789 309.503 439.662 309.911 439.003 310.319 438.343 310.621 437.767 310.582 437.723 310.544 437.679 310.571 437.453 310.643 437.221 310.715 436.989 311.027 435.896 311.337 434.792 311.646 433.688 312.014 432.484 312.154 432.116 312.757 430.532 313.171 429.009 313.171 428.373 313.171 427.997 313.451 427.33 313.792 426.891 314.134 426.452 314.604 425.562 314.836 424.913 315.082 424.227 315.802 423.343 316.557 422.8 317.271 422.287 317.855 421.669 317.855 421.427 317.855 420.873 319.444 419.66 322.037 418.235 323.141 417.628 324.421 416.879 324.881 416.569 326.111 415.743 328.87 414.643 330.402 414.367 331.138 414.235 331.968 414.01 332.247 413.867 332.526 413.724 334.359 413.517 336.321 413.408 338.284 413.299 340.151 413.109 340.47 412.986 340.85 412.84 340.972 412.891 340.823 413.133 340.657 413.401 340.895 413.407 341.688 413.154 342.289 412.962 343.76 412.672 344.956 412.509 346.152 412.347 347.357 412.12 347.633 412.006 347.909 411.891 350.77 411.737 353.99 411.662 361.432 411.491 366.284 411.083 367.457 410.528 368.382 410.091 368.53 409.634 368.177 408.317 367.921 407.362 365.884 406.448 365.305 407.027M374.301 407.53C373.646 408.045 373.481 408.421 373.605 409.119 373.853 410.513 374.511 410.952 376.55 411.082 378.05 411.177 378.415 411.1 378.415 410.689 378.415 410.409 378.189 410.093 377.913 409.987 377.636 409.88 377.411 409.384 377.411 408.878 377.411 407.897 376.515 406.854 375.673 406.854 375.39 406.854 374.773 407.158 374.301 407.53M42.0388 432.513C41.9124 432.64 40.3 432.785 38.4558 432.837 36.6112 432.888 34.9888 433.001 34.85 433.086 34.7111 433.172 34.4103 433.127 34.1811 432.985 33.9523 432.844 33.1292 432.824 32.3526 432.942 31.5761 433.06 29.6251 433.123 28.0171 433.081 26.1752 433.034 25.0938 433.134 25.0938 433.353 25.0938 433.543 24.79 433.62 24.4183 433.522 24.0469 433.425 22.8802 433.481 21.8253 433.646 20.7707 433.811 18.9669 433.984 17.8166 434.031 16.6666 434.077 15.7255 434.229 15.7255 434.37 15.7255 434.656 13.3094 434.564 13.0488 434.268 12.9568 434.163 11.8276 434.176 10.5394 434.295 9.25125 434.414 6.34807 434.479 4.08762 434.438L-0.021748 434.364 0.0726048 437.924C0.163277 441.328 0.200416 441.489 0.920107 441.591 1.33432 441.65 1.67292 441.855 1.67292 442.048 1.67292 442.241 1.94895 442.326 2.28655 442.238 2.69842 442.13 3.11096 442.393 3.54124 443.037 3.89389 443.565 4.44596 444.082 4.76783 444.185 5.09003 444.288 5.3577 444.551 5.36272 444.769 5.36773 444.986 5.80939 445.594 6.34405 446.118 7.47428 447.226 8.11969 448.494 9.43494 452.191 10.7529 455.894 10.7994 456.147 11.239 461.982 11.411 464.268 11.3417 464.965 10.8389 465.997 10.5039 466.684 10.2058 467.36 10.1757 467.498 10.1456 467.636 10.085 467.862 10.0409 468 9.99637 468.138 9.93146 468.401 9.896 468.585 9.86053 468.769 9.73372 469.146 9.61394 469.422 9.49383 469.698 9.34293 470.635 9.27836 471.505 9.21378 472.374 9.05719 473.19 8.93005 473.317 8.80325 473.444 8.69919 473.966 8.69919 474.477 8.69919 474.987 8.54863 475.498 8.36461 475.611 8.18058 475.725 8.03002 476.193 8.03002 476.652 8.03002 477.11 7.82191 477.891 7.56763 478.389 7.12397 479.255 6.4983 482.033 6.62878 482.554 6.66358 482.692 6.54112 482.805 6.3571 482.805 6.17308 482.805 6.02252 483.257 6.02252 483.809 6.02252 484.361 5.87195 484.813 5.68793 484.813 5.50391 484.813 5.37978 484.926 5.4119 485.064 5.44369 485.201 5.30918 485.691 5.11278 486.151 4.91605 486.611 4.4764 487.891 4.13546 488.995 3.79452 490.099 3.38967 491.094 3.23509 491.207 3.08052 491.32 2.96709 491.508 2.98282 491.625 2.99854 491.743 2.99988 491.876 2.9855 491.922 2.97111 491.969 2.91256 492.25 2.85434 492.547 2.66095 493.54 1.32362 494.784 0.642067 494.606-0.169969 494.393-0.206773 495.121 0.585522 495.723 1.12153 496.13 1.12353 496.168 0.609612 496.178 0.105059 496.187 0.0444997 496.835 0.0150563 502.538-0.0143871 508.247 0.0368043 508.867 0.520948 508.682 0.876611 508.545 0.933825 508.397 0.689243 508.246 0.443659 508.094 0.547045 507.811 0.995723 507.404 1.36812 507.067 1.67292 506.589 1.67292 506.341 1.67292 506.094 1.82047 505.891 2.00115 505.891 2.18149 505.891 2.42373 505.515 2.53916 505.055 2.65459 504.595 2.89616 504.218 3.0755 504.218 3.25484 504.218 3.33915 504.031 3.2632 503.803 3.18691 503.574 3.43785 503.23 3.82062 503.038 4.20372 502.847 4.52124 502.359 4.52659 501.956 4.53194 501.552 4.71998 501.038 4.94482 500.813 5.16933 500.588 5.35335 500.076 5.35335 499.675 5.35335 499.275 5.58588 498.754 5.87062 498.518 6.15501 498.282 6.31026 497.887 6.21557 497.641 6.12088 497.394 6.15267 497.192 6.28583 497.192 6.61138 497.192 7.50071 495.201 7.58502 494.283 7.62216 493.878 7.81488 493.245 8.01296 492.874 8.21137 492.504 8.34955 492.081 8.32011 491.936 8.29033 491.791 8.39505 490.994 8.55197 490.166 8.70923 489.338 8.80023 488.528 8.75473 488.368 8.70889 488.207 8.94109 487.777 9.27066 487.412 9.60056 487.048 9.85652 486.653 9.83979 486.534 9.77019 486.042 10.1362 485.147 10.4072 485.147 10.5675 485.147 10.7964 484.537 10.9158 483.79 11.0349 483.044 11.4836 481.953 11.9122 481.365 12.8159 480.126 13.9134 477.753 13.7809 477.326 13.7307 477.165 13.9973 476.817 14.3731 476.554 14.7488 476.291 15.0563 475.849 15.0563 475.573 15.0563 475.296 15.1811 475.147 15.3333 475.241 15.4859 475.335 15.8727 474.78 16.1929 474.007 17.6811 470.412 17.927 470.075 22.3573 465.546 23.1526 464.733 23.9432 464.068 24.1138 464.068 24.2848 464.068 24.4246 463.859 24.4246 463.602 24.4246 463.346 24.6505 463.049 24.9265 462.943 25.2026 462.838 25.4284 462.537 25.4284 462.274 25.4284 462.012 25.6639 461.707 25.9514 461.597 26.2391 461.487 26.3803 461.244 26.2649 461.057 26.1494 460.87 26.2906 460.627 26.5784 460.517 26.8658 460.407 27.106 460.069 27.112 459.767 27.1257 459.055 27.895 458.046 28.4229 458.046 28.9184 458.046 30.0858 456.708 30.1015 456.122 30.1076 455.892 30.2307 455.704 30.3749 455.704 30.6646 455.704 31.9735 453.645 31.8812 453.335 31.8273 453.154 32.3804 452.565 34.2293 450.833 34.6335 450.455 35.5288 449.883 36.2187 449.563 36.909 449.243 37.4734 448.851 37.4734 448.693 37.4734 447.986 41.3566 445.649 44.8343 444.262 45.8498 443.857 46.7247 443.391 49.3833 441.839 50.5052 441.183 51.8602 440.644 52.3946 440.639 52.9289 440.635 54.5707 440.37 56.0429 440.05 57.515 439.73 59.5125 439.489 60.4815 439.515 61.4504 439.541 62.3213 439.437 62.416 439.283 62.5107 439.129 62.8343 439.098 63.1347 439.213 63.482 439.347 63.5984 439.29 63.4549 439.057 63.2936 438.796 63.5687 438.785 64.4175 439.02 65.0957 439.207 67.1454 439.257 69.189 439.135 73.5443 438.877 72.2866 438.883 79.531 439.082 82.8802 439.174 85.7743 439.344 85.9624 439.461 86.5047 439.796 93.0733 440.985 93.3698 440.802 93.517 440.711 93.7197 440.77 93.8201 440.933 93.9208 441.095 94.7271 441.324 95.6121 441.442 96.4971 441.559 97.5219 441.866 97.8903 442.124 98.2587 442.382 98.8486 442.645 99.2022 442.707 99.5555 442.771 100.088 443.048 100.386 443.324 101.412 444.276 102.863 445.332 103.144 445.332 103.299 445.332 103.336 445.477 103.227 445.654 103.117 445.831 103.338 446.287 103.718 446.667 104.358 447.307 105.011 450.004 105.556 454.258 105.641 454.927 105.853 455.94 106.026 456.509 106.2 457.078 106.436 458.109 106.552 458.799 106.668 459.489 106.845 460.053 106.947 460.053 107.048 460.053 107.572 459.74 108.11 459.356 109.607 458.29 110.317 456.561 110.365 453.864 110.388 452.575 110.479 451.22 110.567 450.852 111.151 448.421 111.357 447.707 111.576 447.353 111.712 447.132 111.883 446.249 111.955 445.389 112.299 441.331 112.417 440.358 112.771 438.71 112.98 437.737 113.039 436.683 112.901 436.368 112.764 436.054 112.638 435.645 112.62 435.461 112.574 434.986 110.678 433.163 110.078 433.018 109.195 432.804 108.595 432.817 107.624 433.068 107.103 433.203 106.751 433.192 106.843 433.044 106.934 432.896 103.898 432.828 100.096 432.893 92.3071 433.026 89.9305 433.018 85.1795 432.84 83.1131 432.762 81.5847 432.859 81.1286 433.095 80.6612 433.338 79.0188 433.429 76.5843 433.349 74.4875 433.28 71.8687 433.227 70.7646 433.231 67.1534 433.245 63.4522 433.186 60.727 433.071 54.2843 432.799 47.7947 432.763 47.6495 432.999 47.4089 433.388 43.5167 433.107 43.0784 432.668 42.6364 432.226 42.3661 432.186 42.0388 432.513M211.059 439.359C210.634 439.479 209.27 439.592 208.028 439.61 206.767 439.629 205.769 439.792 205.769 439.978 205.769 440.162 205.561 440.313 205.307 440.313 204.71 440.313 203.336 442.122 202.358 444.198 201.934 445.098 201.479 445.915 201.346 446.014 200.943 446.317 200.144 448.858 199.912 450.574 199.792 451.463 199.481 452.964 199.22 453.908 198.767 455.552 198.763 456.964 199.206 458.046 199.32 458.322 199.473 458.999 199.548 459.551 199.716 460.788 200.727 464.115 201.073 464.57 201.213 464.754 201.435 465.356 201.567 465.909 201.699 466.461 202.208 467.439 202.699 468.083 203.19 468.727 203.555 469.367 203.51 469.505 203.464 469.643 203.56 469.756 203.723 469.756 203.886 469.756 204.353 470.581 204.762 471.588 205.171 472.596 206.167 474.13 206.976 474.999 207.785 475.867 208.446 476.688 208.446 476.823 208.446 476.959 208.634 477.268 208.865 477.512 209.095 477.755 209.678 478.556 210.16 479.292 210.643 480.028 211.433 481.052 211.917 481.568 212.4 482.083 212.796 482.648 212.796 482.822 212.796 482.997 212.946 483.14 213.13 483.14 213.314 483.14 213.465 483.362 213.465 483.634 213.465 484.258 217.143 488.158 217.732 488.158 217.973 488.158 218.257 488.384 218.362 488.66 218.468 488.936 218.73 489.162 218.945 489.162 219.159 489.162 219.888 489.618 220.564 490.176 222.06 491.409 223.813 492.173 225.143 492.173 225.689 492.173 226.559 492.338 227.077 492.539 228.166 492.963 228.488 493.026 231.867 493.483 233.247 493.67 235.882 493.751 237.722 493.664 242.359 493.444 242.605 493.406 242.42 492.926 242.217 492.395 242.652 492.385 243.176 492.909 243.488 493.222 243.577 493.151 243.577 492.59 243.577 492.021 243.314 491.821 242.323 491.641 241.633 491.515 240.382 491.146 239.543 490.819 238.703 490.493 237.273 490.118 236.364 489.986 235.455 489.854 234.56 489.656 234.376 489.547 234.192 489.437 233.891 489.338 233.707 489.328 232.362 489.25 230.15 488.613 228.562 487.846 227.268 487.222 225.972 486.603 224.673 485.988 223.569 485.467 222.214 484.725 221.662 484.341 221.11 483.957 220.561 483.642 220.442 483.642 220.005 483.641 217.479 481.423 217.471 481.033 217.466 480.811 216.873 479.988 216.153 479.203 215.433 478.417 214.754 477.49 214.644 477.142 214.533 476.794 214.213 476.422 213.933 476.314 213.652 476.206 213.51 475.976 213.618 475.802 213.725 475.629 213.447 474.686 212.999 473.709 212.551 472.731 211.995 471.254 211.762 470.425 211.53 469.597 211.262 468.776 211.168 468.599 210.857 468.016 210.72 466.608 210.727 464.068 210.732 462.082 210.912 461.176 211.594 459.719 212.067 458.707 212.456 457.684 212.458 457.446 212.46 457.209 212.757 456.696 213.118 456.308 213.48 455.92 213.708 455.492 213.624 455.356 213.541 455.221 213.689 454.931 213.953 454.711 214.218 454.492 214.614 453.759 214.835 453.084 215.055 452.409 215.334 451.781 215.456 451.689 216.041 451.246 217.145 447.252 217.145 445.577 217.145 443.359 215.671 439.644 214.791 439.644 214.491 439.644 214.133 439.531 213.994 439.393 213.686 439.084 212.1 439.066 211.059 439.359" fill="#000000" fill-rule="evenodd" fill-opacity="1" transform="matrix(1.00008 0 0 1 -188.122 -347.764)"/></g></g></g></g></svg>