<svg xmlns="http://www.w3.org/2000/svg" width="3156" height="966"><path  fill-rule="evenodd" d="M1957.5 67.682c-15.734 5.927-38.157 12.322-58.558 16.702-16.427 3.527-48.625 8.604-54.61 8.612-5.266.007-6.332.851-6.332 5.018v3.799l9.75.634c14.173.921 21.96 2.357 27.822 5.131 6.162 2.915 13.796 10.739 16.548 16.96 4.581 10.357 4.88 15.585 4.88 85.44v65.803l-4.75-1.348c-8.315-2.361-22.156-3.349-33.319-2.38-26.842 2.331-48.072 12.41-69.314 32.91-15.876 15.322-26.37 29.617-36.728 50.037l-5.327 10.5-1.227-16.905c-.675-9.298-1.946-23.248-2.825-31-1.726-15.234-7.061-43.546-8.472-44.957-.49-.49-7.531 1.748-16.203 5.153-34.818 13.67-54.806 19.004-96.527 25.761-2.797.453-3.229.946-3.5 3.994l-.308 3.477-5-3.581c-15.717-11.256-38.586-21.333-59.841-26.37-17.576-4.164-46.827-5.27-66.875-2.529-40.033 5.475-76.24 23.48-107.896 53.654-26.316 25.084-47.303 62.02-56.02 98.592-7.03 29.495-7.71 65.748-1.786 95.211 6.767 33.656 25.098 68.017 49.701 93.163 4.871 4.979 7.296 8.19 6.921 9.166-1.06 2.762-16.002 14.693-22.141 17.679-16.552 8.05-40.256 9.063-55.427 2.369-12.743-5.624-23.451-21.521-28.543-42.377-4.7-19.249-4.835-23.532-5.31-167.75l-.448-136.25H1358v-12.98l-45.75-.26-45.75-.26-.259-53.25-.259-53.25h-8.74l-5.52 11.25c-20.062 40.887-58.651 78.527-97.595 95.196l-8.127 3.478v-9.045c0-6.846-.304-8.92-1.25-8.528-8.08 3.347-44.415 14.518-58.793 18.076-19.465 4.816-48.033 9.963-61.457 11.071-11.395.941-11.5.991-11.5 5.48v3.842l8.75.591c21.771 1.468 30.65 4.056 37.532 10.938 5.239 5.238 8.446 11.268 10.717 20.147 1.952 7.633 2.001 11.075 2.001 141.004 0 128.714-.065 133.435-1.948 140.795-2.206 8.626-3.699 11.388-9.479 17.539-7.549 8.034-16.647 11.124-35.573 12.083l-11.5.583-.307 4.25-.308 4.25 14.308-.006c7.869-.003 29.613-.683 48.32-1.51 30.272-1.338 37.751-1.338 68 0 18.693.828 40.175 1.507 47.737 1.51L1205 665v-9l-8.75-.02c-30.733-.069-45.193-10.41-49.215-35.193-.662-4.081-1.023-61.122-1.027-162.537L1146 302h46.941l.341 143.25c.377 158.29-.007 148.732 6.844 170.085 9.345 29.126 31.88 49.322 63.176 56.619 17.182 4.006 47.234 4.338 62.789.693 19.526-4.575 33.477-13.011 51.218-30.969l8.809-8.916 2.191 2.013c3.462 3.179 21.499 14.625 29.191 18.523 20.297 10.286 41.802 16.954 65.484 20.305 12.47 1.764 39.86 1.986 52.516.425 29.736-3.667 58.895-15.274 84.815-33.762 8.6-6.133 36.685-32.718 36.685-34.724 0-.656-1.12-2.246-2.49-3.532-2.934-2.757-1.473-3.689-16.856 10.746-16.802 15.767-35.551 26.937-57.549 34.287-16.423 5.486-27.593 7.24-46.105 7.24-35.973 0-61.64-9.767-85.732-32.625-28.016-26.58-43.269-64.792-47.365-118.658-1.272-16.732-.598-47.024 1.434-64.5l1.163-10 134.717-.254 134.716-.253 1.176-2.197c.818-1.529.987-5.713.554-13.747-1.826-33.861-18.882-67.38-47.556-93.458l-6.497-5.908 9.445.609c11.018.71 20.402 3.235 28.948 7.79 7.033 3.749 10.334 7.279 13.746 14.703 5.197 11.306 5.179 10.776 5.209 150.215.017 83.252-.337 131.821-.993 136-1.428 9.101-5.972 17.922-12.044 23.381-8.087 7.271-19.735 10.596-37.171 10.611L1619 656v9l13.75-.002c7.563-.002 29.198-.684 48.079-1.517 30.64-1.352 38.001-1.352 68.5-.004 18.794.831 40.384 1.514 47.978 1.517l13.808.006-.308-4.25-.307-4.25-12.5-.625c-6.875-.343-14.517-1.177-16.983-1.851-15.395-4.212-24.972-15.24-27.881-32.106-.799-4.626-1.136-37.629-1.136-111.074 0-117.009-.208-113.096 7.187-135.344 13.756-41.384 43.992-75.654 72.813-82.53 8.669-2.068 19.627-1.639 25.2.988 5.127 2.417 4.511 1.276 10.817 20.042 3.805 11.324 6.684 16.48 12.605 22.572 4.318 4.443 11.139 8.362 14.628 8.406 1.659.021 1.75 8.435 1.75 162.522V670h9.778l22.361-24.993c12.299-13.746 22.743-24.996 23.211-25s4.541 3.706 9.052 8.243c13.549 13.627 36.017 29.623 50.779 36.151 7.217 3.192 20.705 7.391 29.819 9.284 11.913 2.473 45.693 2.928 62.131.836 24.544-3.124 41.757-8.374 62.869-19.176 55.164-28.226 88.931-80.393 98.611-152.345 2.068-15.368 2.361-50.502.531-63.5-8.395-59.613-37.33-106.795-82.389-134.349-22.705-13.884-45.122-21.82-72.527-25.677-9.914-1.396-16.643-1.624-35-1.187-24.467.583-34.791 2.113-49.47 7.331-16.257 5.779-36.923 18.787-50.506 31.788l-5.25 5.026V192.716c0-71.344-.338-129.68-.75-129.635-.412.044-6.15 2.115-12.75 4.601m1107.5-.126c-33.832 11.285-74.172 20.963-100 23.991-19.224 2.254-18 1.82-18 6.379v3.887l9.75.634c29.508 1.918 39.509 8.106 46.611 28.839 2.105 6.146 2.132 7.27 2.422 102.633l.293 96.419-7.788-7.433c-9.631-9.192-19.07-16.73-30.788-24.586-22.744-15.247-40.896-20.307-72.872-20.315-31.021-.007-53.532 4.943-77.981 17.147-6.52 3.255-13.481 7.023-15.469 8.374l-3.616 2.457-2.84-5.741c-9.846-19.902-36.839-30.962-68.791-28.188-26.842 2.331-48.072 12.41-69.314 32.91-15.866 15.312-26.345 29.585-36.737 50.037l-5.334 10.5-.718-10.5c-1.292-18.885-2.928-35.258-4.927-49.313-2.117-14.882-5.633-31.652-6.93-33.052-.44-.476-7.927 1.959-16.636 5.41l-15.835 6.275-18 1.407c-11.441.894-24.013 1.193-34.5.821-9.075-.322-24.488-.862-34.25-1.201l-17.75-.616v4.003c0 3.85.144 4.028 3.75 4.624 2.063.341 6.9.629 10.75.641 8.944.026 15.519 2.944 21.213 9.412 5.124 5.821 7.165 11.625 7.946 22.596.484 6.794.186 10.168-1.478 16.748-1.329 5.257-19.177 47.972-49.303 117.993-25.97 60.363-47.48 110.061-47.799 110.438-.623.737-91.01-216.032-94.939-227.686-6.36-18.865-2.575-37.666 8.744-43.441 5.511-2.811 16.917-5.82 25.134-6.629l6.982-.688v-8.064l-32.25.882c-40.594 1.111-71.61 1.109-112-.005l-31.75-.876v7.923l7.496 1.08c17.719 2.552 30.489 13.939 42.947 38.294 3.025 5.914 36.108 82.161 73.517 169.439l68.018 158.687-30.576 70.699c-16.817 38.884-32.378 74.074-34.581 78.199-10.465 19.596-23.522 32.124-38.629 37.064-9.433 3.085-23.258 10.362-28.574 15.041-6.071 5.344-9.714 13.165-9.751 20.934-.039 8.102 1.566 12.32 6.198 16.284 7.398 6.333 17.882 7.501 26.917 2.999 12.872-6.415 30.691-29.558 44.519-57.822 4.036-8.25 53.295-121.425 109.465-251.5s105.251-242.952 109.07-250.837c4.358-8.997 7.413-14.184 8.204-13.927.693.225 2.742 3.301 4.553 6.836 6.262 12.223 6.134 9.079 6.165 151.928.017 83.252-.337 131.821-.993 136-1.428 9.101-5.972 17.922-12.044 23.381-8.087 7.271-19.735 10.596-37.171 10.611L2486 656v9l13.75-.002c7.563-.002 29.198-.684 48.079-1.517 30.64-1.352 38.001-1.352 68.5-.004 18.794.831 40.384 1.514 47.978 1.517l13.808.006-.308-4.25-.307-4.25-12.5-.625c-6.875-.343-14.517-1.177-16.983-1.851-15.755-4.31-25.219-15.495-27.973-33.06-.857-5.463-1.079-36.29-.831-114.964l.339-107.5 2.652-10c12.816-48.316 44.608-87.908 76.679-95.491 8.727-2.063 19.804-1.647 25.317.95 5.13 2.417 4.543 1.328 10.803 20.041 4.471 13.364 9.65 21.408 17.113 26.58l3.853 2.671-2.826 3.624c-13.852 17.761-27.145 46.984-33.263 73.125-11.354 48.516-5.396 108.295 15.4 154.499 22.914 50.911 66.962 86.831 119.531 97.476 20.561 4.163 51.318 4.374 70.401.482 26.801-5.467 45.681-17.205 75.038-46.653 12.307-12.345 16.75-16.247 16.75-14.71 0 1.151 1.802 10.488 4.004 20.749 4.778 22.266 10.577 41.53 12.302 40.873 8.24-3.139 78.589-22.221 94.694-25.686a1754 1754 0 0 0 11.75-2.556c1.922-.437 2.25-1.165 2.25-4.993V635l-6.25-.017c-13.142-.037-29.835-5.729-38.111-12.995-8.093-7.106-13.408-18.342-16.044-33.914-1.432-8.461-1.595-35.839-1.595-267.25 0-141.803-.338-257.812-.75-257.797s-6.825 2.052-14.25 4.529M1085.265 94.542c-16.013 4.312-28.798 16.905-33.869 33.359-1.946 6.315-1.886 20.607.116 27.494 3.115 10.715 13.34 22.946 23.488 28.098 14.953 7.59 34.13 7.259 47.36-.82 6.825-4.167 14.569-12.747 18.2-20.163 13.618-27.818-1.264-60.207-31.253-68.018-7.064-1.84-17.103-1.819-24.042.05m-859.241 1.061c-22.517 6.051-37.395 29.561-33.985 53.703 1.447 10.241 5.667 18.586 13.222 26.14 9.69 9.69 21.238 14.554 34.555 14.554 13.006 0 23.817-4.54 33.231-13.953 26.453-26.454 15.172-69.71-20.979-80.435-6.681-1.983-18.684-1.987-26.044-.009M270.5 279.141c-34.967 11.512-71.296 20.173-98 23.364-19.961 2.385-18.5 1.878-18.5 6.424v3.891l8.75.591c22.421 1.512 30.36 3.975 38.135 11.827 5.317 5.371 8.702 12.267 10.682 21.762 1.384 6.637 1.509 29.73 1.139 210.976-.293 143.33-.757 207.073-1.571 215.524-5.078 52.771-15.563 83.113-35.665 103.215-6.837 6.837-16.168 11.958-26.97 14.801-13.457 3.542-40.908 2.764-54.895-1.556-7.729-2.388-14.316-7.272-18.396-13.644-2.335-3.647-3.456-7.121-4.617-14.316-2.045-12.664-4.995-20.999-10.05-28.388C53.104 822.739 45.683 818.71 33 818.659c-20.391-.083-32.836 19.452-26.118 40.998 2.727 8.744 6.106 13.529 14.128 20.001 15.928 12.853 38.609 20.924 69.512 24.738 36.387 4.49 61.229 2.7 88.599-6.384 32.095-10.652 59.768-30.814 76.88-56.014 5.556-8.18 14.08-26.23 17.426-36.898 4.878-15.55 8.406-33.914 11.26-58.6 1.431-12.379 1.664-39.334 2.014-232.819l.395-218.819 3.202.682c9.813 2.092 19.876 10.074 23.755 18.843 5.586 12.627 5.292 5.805 5.976 138.613.619 120.008.675 122.693 2.754 132 2.863 12.815 3.887 16.228 7.495 25 9.178 22.312 25.566 39.259 49.874 51.577 8.648 4.382 27.817 10.186 39.424 11.937 12.78 1.927 38.552 2.181 51.924.511 30.571-3.818 59.701-14.057 80.088-28.151 8.697-6.012 21.161-18.177 27.394-26.736 2.414-3.315 4.68-5.847 5.035-5.627.356.219 1.221 3.682 1.923 7.694 2.73 15.603 11.085 47.147 13.013 49.127.446.457 5.926-.589 12.179-2.325 22.202-6.163 49.584-13.148 64.868-16.548 8.525-1.896 16.513-3.684 17.75-3.973l2.25-.524-.035 98.769c-.038 106.866-.122 108.724-5.381 119.104-4.926 9.721-14.305 16.511-26.287 19.03-2.862.602-10.174 1.396-16.25 1.765l-11.047.671v8.583l19.75-.486c10.862-.267 28.923-.916 40.135-1.442 25.807-1.21 45.654-1.209 72.987.004 11.895.528 29.84 1.175 39.878 1.437l18.25.478v-8.574l-10.937-.665c-14.202-.862-19.868-1.989-26.62-5.295-9.766-4.782-16.589-14.371-19.313-27.14-.803-3.765-1.13-38.484-1.13-119.891V618.718l4.197 4.891c18.654 21.737 44.302 39.198 67.421 45.897 26.144 7.576 67.707 7.703 95.882.292 46.169-12.145 88.234-49.126 109.538-96.298 14.631-32.395 21.083-62.719 21.025-98.816-.134-84.08-37.767-151.624-101.488-182.152C942.068 280.79 915.75 275.08 886 275.05c-22.444-.024-42.082 4.058-59.5 12.367-18.285 8.722-41.614 26.144-55.496 41.443-4.062 4.477-7.66 8.14-7.994 8.14-.335 0-1.158-4.934-1.828-10.964-1.265-11.378-7.656-48.843-8.47-49.658-.256-.255-6.258 1.862-13.338 4.704-26.209 10.52-61.843 21.191-78.124 23.395l-5.25.711v-20.503l-17.25.88c-21.604 1.103-45.764 1.098-84.5-.016L524 284.68v7.903l13.75 1.108c19.507 1.573 27.306 4.66 34.76 13.755 5.607 6.843 8.466 15.845 9.623 30.301.595 7.422.825 54.699.584 120-.437 118.537-.093 111.919-6.716 129.093-8.473 21.973-30.822 44.838-54.474 55.733-17.17 7.91-34.043 11.69-52.527 11.768-14.484.062-21.752-1.277-31.5-5.8-19.042-8.837-33.825-31.459-40.404-61.832-3.595-16.6-4.087-37.276-4.091-172.115L393 284.687l-16.75.892c-21.13 1.126-53.08 1.15-73.5.055l-15.75-.845v-5.394c0-2.967-.337-5.349-.75-5.294s-7.5 2.324-15.75 5.04M1490 291.947c-16.804 3.571-29.775 10.828-43.011 24.064-16.058 16.058-26.956 37.228-34.484 66.989-5.092 20.131-7.334 32.129-6.093 32.605.654.251 42.341.33 92.638.175 86.177-.264 91.642-.385 94.779-2.096 5.335-2.912 6.542-7.164 5.729-20.184-3.154-50.479-23.11-86.004-55.558-98.9-12.178-4.84-37.788-6.098-54-2.653m-635.984 3.518c-39.957 7.599-69.862 35.892-79.918 75.608-3.981 15.725-4.231 22.952-3.86 111.427.394 93.85-.071 86.527 6.729 106 11.17 31.987 39.234 57.213 73.533 66.098 13.203 3.421 34.151 4.373 46.14 2.098 16.55-3.14 29.672-10.2 42.36-22.79 23.43-23.248 36.932-57.078 43.662-109.406 2.555-19.864 2.552-72.623-.005-94-6.083-50.84-20.198-85.956-44.2-109.957-13.364-13.364-25.942-20.545-42.314-24.158-9.766-2.155-32.969-2.662-42.127-.92m1197.317.041c-11.198 1.975-24.9 6.521-32.545 10.796-25.726 14.387-42.201 39.5-46.769 71.293-.805 5.604-1.032 35.412-.778 102.405.351 92.721.399 94.679 2.528 104 7.205 31.545 23.89 54.187 48.731 66.133 30.703 14.764 75.445 12.5 101.839-5.154 24.295-16.249 41.565-43.898 51.196-81.961 6.482-25.62 10.135-70.709 8.418-103.925-.944-18.263-1.115-20.032-3.538-36.593-10.064-68.77-40.389-114.141-83.915-125.551-10.57-2.771-33.486-3.503-45.167-1.443m833.167-.022c-25.701 4.785-45.498 20.991-61.705 50.516-23.01 41.917-31.338 118.553-20.647 190 7.007 46.83 25.058 84.892 50.18 105.806 6.331 5.271 18.786 11.383 28.172 13.826 11.013 2.867 37.157 2.616 48.5-.464 35.627-9.676 61.42-36.629 70.976-74.168 5.38-21.132 5.524-24.126 5.524-115 0-83.503-.025-84.589-2.153-92.031-6.205-21.704-14.121-35.822-27.794-49.573-10.007-10.063-16.601-14.654-30.053-20.921-18.372-8.56-41.6-11.603-61-7.991M656.017 443.111c.011 75.622.411 129.16 1.008 134.889 2.086 19.998 7.41 33.609 16.257 41.564 4.814 4.328 14.418 9.535 19.992 10.838l2.773.648-.285-139.275c-.266-129.84-.405-139.681-2.056-145.275-4.822-16.341-16.237-26.236-32.485-28.16l-5.221-.619z" fill="#e4fff5" stroke="transparent"/></svg>