<?xml version="1.0" standalone="no"?><svg width="2175" height="1746" viewBox="285 120 1087.4998779296875 873" xmlns="http://www.w3.org/2000/svg" xmlns:xlink="http://www.w3.org/1999/xlink"><style>line.bg { stroke: rgba(3, 148, 172, 0.7); stroke-width: 1; }circle.bg { fill: rgba(100, 220, 240, 0.7); }line.bg-sub { stroke: rgba(140, 240, 240, 0.5); stroke-width: 1; }g.u rect, g.u path, g.u circle { fill: none; stroke-width: 2; stroke-linejoin: round; }pattern line { vector-effect: non-scaling-stroke; }.zoomed-out pattern line { vector-effect: none; }text { stroke-width: 0; font-family: sans-serif; }text tspan { white-space: pre; }.ui-dark { background: rgb(51, 51, 51); }.ui-dark line.bg { stroke: rgba(172, 232, 242, 0.57); stroke-width: 1; }.ui-dark circle.bg { fill: rgba(100, 220, 240, 0.3); }.ui-dark line.bg-sub { stroke: rgba(140, 240, 240, 0.1); stroke-width: 1; }rect.marquee { fill: rgba(234, 255, 231, 0.3); stroke: rgb(98, 137, 95); stroke-width: 1; stroke-dasharray: 4; vector-effect: non-scaling-stroke; }rect.highlight { fill: blue; opacity: 0.5; }.bg rect { stroke: rgba(3, 148, 172, 0.7); stroke-width: 1; }</style><defs class="ic"></defs><defs><marker id="arrowhead" viewBox="0 0 15 15" refX="5" refY="5" markerWidth="5" markerHeight="5" orient="auto-start-reverse"><path stroke="context-stroke" fill="context-stroke" d="M 0 0 L 10 5 L 0 10 z"></path></marker></defs><g xmlns="http://www.w3.org/2000/svg" class="u current" data-layer="Layer 1" style="visibility: visible;"><path d="M 420 180 L 1020 180" class="" stroke="rgba(41, 173, 255, 1)" id="8dnz214w" style="fill: rgba(0, 0, 0, 0); stroke-width: 3; stroke-linejoin: round;" data-mut=""/><path class="" id="h2402km9" d="M 1020 360 A 90 90 0 0 0 1020 180" style="stroke: var(--track-colour); fill: rgba(0, 0, 0, 0); stroke-width: 3; stroke-linejoin: round;" data-mut=""/><path d="M 1020 360 L 420 360" class="" stroke="rgba(41, 173, 255, 1)" id="39h5062d" style="fill: rgba(0, 0, 0, 0); stroke-width: 3; stroke-linejoin: round;" data-mut=""/><path class="" id="177b1xuz" d="M 420 180 A 90 90 0 0 0 420 360" style="stroke: var(--track-colour); fill: rgba(0, 0, 0, 0); stroke-width: 3; stroke-linejoin: round;" data-mut=""/><path class="" id="tn3lglx4" d="M 1095 270 A 75 75 0 0 0 1020 195" style="stroke: var(--track-colour); fill: rgba(0, 0, 0, 0); stroke-width: 3; stroke-linejoin: round;" data-mut=""/><path class="" id="y6g22qtc" d="M 1095 270 A 75 75 0 0 1 1020 345" style="stroke: var(--track-colour); fill: rgba(0, 0, 0, 0); stroke-width: 3; stroke-linejoin: round;" data-mut=""/><path class="" id="hyktognu" d="M 345 270 A 75 75 0 0 0 420 345" style="stroke: var(--track-colour); fill: rgba(0, 0, 0, 0); stroke-width: 3; stroke-linejoin: round;" data-mut=""/><path class="" id="4ilfp1a3" d="M 345 270 A 75 75 0 0 1 420 195" style="stroke: var(--track-colour); fill: rgba(0, 0, 0, 0); stroke-width: 3; stroke-linejoin: round;" data-mut=""/><path d="M 420 345 L 1020 345" class="" stroke="rgba(41, 173, 255, 1)" id="ao7y1ey8" style="fill: rgba(0, 0, 0, 0); stroke-width: 3; stroke-linejoin: round;" data-mut=""/><path d="M 420 195 L 1020 195" class="" stroke="rgba(41, 173, 255, 1)" id="5z1all3m" style="fill: rgba(0, 0, 0, 0); stroke-width: 3; stroke-linejoin: round;" data-mut=""/><path class="" id="gz0hklyu" d="M 420 210 A 60 60 0 0 0 420 330" style="stroke: var(--track-colour); fill: rgba(0, 0, 0, 0); stroke-width: 3; stroke-linejoin: round;" data-mut=""/><path class="" id="jqo13vmf" d="M 1020 210 A 60 60 0 1 1 1020 330" style="stroke: var(--track-colour); fill: rgba(0, 0, 0, 0); stroke-width: 3; stroke-linejoin: round;" data-mut=""/><path class="" id="v9kkti1r" d="M 420 225 A 45 45 0 0 0 420 315" style="stroke: var(--track-colour); fill: rgba(0, 0, 0, 0); stroke-width: 3; stroke-linejoin: round;" data-mut=""/><path class="" id="tm06vqlv" d="M 1020 225 A 45 45 0 1 1 1020 315" style="stroke: var(--track-colour); fill: rgba(0, 0, 0, 0); stroke-width: 3; stroke-linejoin: round;" data-mut=""/><path d="M 420 330 L 1020 330" class="" stroke="rgba(41, 173, 255, 1)" id="xvqt5m0i" style="fill: rgba(0, 0, 0, 0); stroke-width: 3; stroke-linejoin: round;" data-mut=""/><path d="M 420 315 L 1020 315" class="" stroke="rgba(41, 173, 255, 1)" id="r5nnxk12" style="fill: rgba(0, 0, 0, 0); stroke-width: 3; stroke-linejoin: round;" data-mut=""/><path d="M 420 225 L 1020 225" class="" stroke="rgba(41, 173, 255, 1)" id="vb2smwn5" style="fill: rgba(0, 0, 0, 0); stroke-width: 3; stroke-linejoin: round;" data-mut=""/><path d="M 420 210 L 1020 210" class="" stroke="rgba(41, 173, 255, 1)" id="6bhwtfjo" style="fill: rgba(0, 0, 0, 0); stroke-width: 3; stroke-linejoin: round;" data-mut=""/><path class="" id="7naho6ei" d="M 660 420 A 90 90 0 0 0 660 600" style="stroke: var(--track-colour); fill: rgba(0, 0, 0, 0); stroke-width: 3; stroke-linejoin: round;" data-mut=""/><path class="" id="v1i2gta5" d="M 660 405 A 105 105 0 0 0 660 615" style="stroke: var(--track-colour); fill: rgba(0, 0, 0, 0); stroke-width: 3; stroke-linejoin: round;" data-mut=""/><path class="" id="0ok404oh" d="M 720 600 A 90 90 0 1 1 720 780" style="stroke: var(--track-colour); fill: rgba(0, 0, 0, 0); stroke-width: 3; stroke-linejoin: round;" data-mut=""/><path class="" id="tpx9dxcf" d="M 660 435 A 75 75 0 0 0 660 585" style="stroke: var(--track-colour); fill: rgba(0, 0, 0, 0); stroke-width: 3; stroke-linejoin: round;" data-mut=""/><path class="" id="bijsvx7d" d="M 660 450 A 60 60 0 0 0 660 570" style="stroke: var(--track-colour); fill: rgba(0, 0, 0, 0); stroke-width: 3; stroke-linejoin: round;" data-mut=""/><path class="" id="ggr0ptzi" d="M 1020 165 A 105 105 0 1 1 1020 375" style="stroke: var(--track-colour); fill: rgba(0, 0, 0, 0); stroke-width: 3; stroke-linejoin: round;" data-mut=""/><path class="" id="mi0xnaov" d="M 1020 150 A 120 120 0 1 1 1020 390" style="stroke: var(--track-colour); fill: rgba(0, 0, 0, 0); stroke-width: 3; stroke-linejoin: round;" data-mut=""/><path d="M 660 390 L 1020 390" class="" stroke="rgba(41, 173, 255, 1)" id="i5gtc6fz" style="fill: rgba(0, 0, 0, 0); stroke-width: 3; stroke-linejoin: round;" data-mut=""/><path class="" id="k5kxeyv5" d="M 660 390 A 120 120 0 0 0 660 630" style="stroke: var(--track-colour); fill: rgba(0, 0, 0, 0); stroke-width: 3; stroke-linejoin: round;" data-mut=""/><path class="" id="o9pvirgm" d="M 720 630 A 60 60 0 1 1 720 750" style="stroke: var(--track-colour); fill: rgba(0, 0, 0, 0); stroke-width: 3; stroke-linejoin: round;" data-mut=""/><path class="" id="ej4gyoo1" d="M 720 615 A 75 75 0 1 1 720 765" style="stroke: var(--track-colour); fill: rgba(0, 0, 0, 0); stroke-width: 3; stroke-linejoin: round;" data-mut=""/><path d="M 660 630 L 720 630" class="" stroke="rgba(41, 173, 255, 1)" id="gn440xi4" style="fill: rgba(0, 0, 0, 0); stroke-width: 3; stroke-linejoin: round;" data-mut=""/><path d="M 660 615 L 720 615" class="" stroke="rgba(41, 173, 255, 1)" id="59upgli4" style="fill: rgba(0, 0, 0, 0); stroke-width: 3; stroke-linejoin: round;" data-mut=""/><path d="M 660 585 L 720 585" class="" stroke="rgba(41, 173, 255, 1)" id="gxr5xpa2" style="fill: rgba(0, 0, 0, 0); stroke-width: 3; stroke-linejoin: round;" data-mut=""/><path d="M 660 600 L 720 600" class="" stroke="rgba(41, 173, 255, 1)" id="z4kek2in" style="fill: rgba(0, 0, 0, 0); stroke-width: 3; stroke-linejoin: round;" data-mut=""/><path d="M 660 570 L 720 570" class="" stroke="rgba(41, 173, 255, 1)" id="33lpkhtl" style="fill: rgba(0, 0, 0, 0); stroke-width: 3; stroke-linejoin: round;" data-mut=""/><path class="" id="eh6mnnco" d="M 720 645 A 45 45 0 1 1 720 735" style="stroke: var(--track-colour); fill: rgba(0, 0, 0, 0); stroke-width: 3; stroke-linejoin: round;" data-mut=""/><path class="" id="bos1gozd" d="M 840 570 A 60 60 0 0 0 840 450" style="stroke: var(--track-colour); fill: rgba(0, 0, 0, 0); stroke-width: 3; stroke-linejoin: round;" data-mut=""/><path class="" id="dl9ta4m6" d="M 840 585 A 75 75 0 0 0 840 435" style="stroke: var(--track-colour); fill: rgba(0, 0, 0, 0); stroke-width: 3; stroke-linejoin: round;" data-mut=""/><path d="M 720 570 L 840 570" class="" stroke="rgba(41, 173, 255, 1)" id="6u62pr8k" style="fill: rgba(0, 0, 0, 0); stroke-width: 3; stroke-linejoin: round;" data-mut=""/><path d="M 660 450 L 840 450" class="" stroke="rgba(41, 173, 255, 1)" id="4e1w3k6n" style="fill: rgba(0, 0, 0, 0); stroke-width: 3; stroke-linejoin: round;" data-mut=""/><path d="M 660 435 L 840 435" class="" stroke="rgba(41, 173, 255, 1)" id="zcov3300" style="fill: rgba(0, 0, 0, 0); stroke-width: 3; stroke-linejoin: round;" data-mut=""/><path d="M 720 585 L 840 585" class="" stroke="rgba(41, 173, 255, 1)" id="tbljejki" style="fill: rgba(0, 0, 0, 0); stroke-width: 3; stroke-linejoin: round;" data-mut=""/><path d="M 720 645 L 570 645" class="" stroke="rgba(41, 173, 255, 1)" id="mekyicw0" style="fill: rgba(0, 0, 0, 0); stroke-width: 3; stroke-linejoin: round;" data-mut=""/><path class="" id="l634hr70" d="M 525 645 A 45 45 0 0 1 480 600" style="stroke: var(--track-colour); fill: rgba(0, 0, 0, 0); stroke-width: 3; stroke-linejoin: round;" data-mut=""/><path d="M 525 645 L 570 645" class="" stroke="rgba(41, 173, 255, 1)" id="tcb4qtz8" style="fill: rgba(0, 0, 0, 0); stroke-width: 3; stroke-linejoin: round;" data-mut=""/><path class="" id="5ilc8pzn" d="M 480 495 A 45 45 0 0 0 390 495" style="stroke: var(--track-colour); fill: rgba(0, 0, 0, 0); stroke-width: 3; stroke-linejoin: round;" data-mut=""/><path d="M 480 600 L 480 495" class="" stroke="rgba(41, 173, 255, 1)" id="y8wvhtch" style="fill: rgba(0, 0, 0, 0); stroke-width: 3; stroke-linejoin: round;" data-mut=""/><path d="M 390 495 L 390 615" class="" stroke="rgba(41, 173, 255, 1)" id="avn8m55g" style="fill: rgba(0, 0, 0, 0); stroke-width: 3; stroke-linejoin: round;" data-mut=""/><path class="" id="rnyobkxr" d="M 450 735 A 60 60 0 0 1 390 675" style="stroke: var(--track-colour); fill: rgba(0, 0, 0, 0); stroke-width: 3; stroke-linejoin: round;" data-mut=""/><path d="M 390 615 L 390 675" class="" stroke="rgba(41, 173, 255, 1)" id="5uemr0wz" style="fill: rgba(0, 0, 0, 0); stroke-width: 3; stroke-linejoin: round;" data-mut=""/><path class="" id="qnpkdhv1" d="M 450 750 A 75 75 0 0 1 375 675" style="stroke: var(--track-colour); fill: rgba(0, 0, 0, 0); stroke-width: 3; stroke-linejoin: round;" data-mut=""/><path class="" id="c7valcev" d="M 450 765 A 90 90 0 0 1 360 675" style="stroke: var(--track-colour); fill: rgba(0, 0, 0, 0); stroke-width: 3; stroke-linejoin: round;" data-mut=""/><path class="" id="shmqphuk" d="M 450 780 A 105 105 0 0 1 345 675" style="stroke: var(--track-colour); fill: rgba(0, 0, 0, 0); stroke-width: 3; stroke-linejoin: round;" data-mut=""/><path class="" id="g6x8xjv3" d="M 435 435 A 60 60 0 0 0 375 495" style="stroke: var(--track-colour); fill: rgba(0, 0, 0, 0); stroke-width: 3; stroke-linejoin: round;" data-mut=""/><path class="" id="tbfg3qta" d="M 435 435 A 60 60 0 0 1 495 495" style="stroke: var(--track-colour); fill: rgba(0, 0, 0, 0); stroke-width: 3; stroke-linejoin: round;" data-mut=""/><path d="M 375 675 L 375 495" class="" stroke="rgba(41, 173, 255, 1)" id="aoj8vtpj" style="fill: rgba(0, 0, 0, 0); stroke-width: 3; stroke-linejoin: round;" data-mut=""/><path d="M 360 675 L 360 495" class="" stroke="rgba(41, 173, 255, 1)" id="wil42jko" style="fill: rgba(0, 0, 0, 0); stroke-width: 3; stroke-linejoin: round;" data-mut=""/><path d="M 345 675 L 345 495" class="" stroke="rgba(41, 173, 255, 1)" id="7124wied" style="fill: rgba(0, 0, 0, 0); stroke-width: 3; stroke-linejoin: round;" data-mut=""/><path d="M 1020 375 L 435 375" class="" stroke="rgba(41, 173, 255, 1)" id="v04w06dx" style="fill: rgba(0, 0, 0, 0); stroke-width: 3; stroke-linejoin: round;" data-mut=""/><path class="" id="gm180ss7" d="M 435 375 A 90 90 0 0 0 345 465" style="stroke: var(--track-colour); fill: rgba(0, 0, 0, 0); stroke-width: 3; stroke-linejoin: round;" data-mut=""/><path d="M 345 465 L 345 495" class="" stroke="rgba(41, 173, 255, 1)" id="qgbfxot2" style="fill: rgba(0, 0, 0, 0); stroke-width: 3; stroke-linejoin: round;" data-mut=""/><path class="" id="2v871s28" d="M 435 390 A 75 75 0 0 0 360 465" style="stroke: var(--track-colour); fill: rgba(0, 0, 0, 0); stroke-width: 3; stroke-linejoin: round;" data-mut=""/><path d="M 360 495 L 360 465" class="" stroke="rgba(41, 173, 255, 1)" id="47sd8lcm" style="fill: rgba(0, 0, 0, 0); stroke-width: 3; stroke-linejoin: round;" data-mut=""/><path d="M 435 390 L 660 390" class="" stroke="rgba(41, 173, 255, 1)" id="h4tmm8i2" style="fill: rgba(0, 0, 0, 0); stroke-width: 3; stroke-linejoin: round;" data-mut=""/><path class="" id="wpl4jz7j" d="M 840 420 A 90 90 0 1 1 840 600" style="stroke: var(--track-colour); fill: rgba(0, 0, 0, 0); stroke-width: 3; stroke-linejoin: round;" data-mut=""/><path d="M 720 600 L 840 600" class="" stroke="rgba(41, 173, 255, 1)" id="397raqpp" style="fill: rgba(0, 0, 0, 0); stroke-width: 3; stroke-linejoin: round;" data-mut=""/><path d="M 660 420 L 840 420" class="" stroke="rgba(41, 173, 255, 1)" id="7o1bqsos" style="fill: rgba(0, 0, 0, 0); stroke-width: 3; stroke-linejoin: round;" data-mut=""/><path d="M 660 405 L 840 405" class="" stroke="rgba(41, 173, 255, 1)" id="pzbuhird" style="fill: rgba(0, 0, 0, 0); stroke-width: 3; stroke-linejoin: round;" data-mut=""/><path class="" id="attn5t8i" d="M 495 600 A 30 30 0 0 0 525 630" style="stroke: var(--track-colour); fill: rgba(0, 0, 0, 0); stroke-width: 3; stroke-linejoin: round;" data-mut=""/><path d="M 495 600 L 495 495" class="" stroke="rgba(41, 173, 255, 1)" id="80r2j1rd" style="fill: rgba(0, 0, 0, 0); stroke-width: 3; stroke-linejoin: round;" data-mut=""/><path d="M 525 630 L 660 630" class="" stroke="rgba(41, 173, 255, 1)" id="seuiwqrk" style="fill: rgba(0, 0, 0, 0); stroke-width: 3; stroke-linejoin: round;" data-mut=""/><path d="M 450 735 L 720 735" class="" stroke="rgba(41, 173, 255, 1)" id="rvt59p75" style="fill: rgba(0, 0, 0, 0); stroke-width: 3; stroke-linejoin: round;" data-mut=""/><path d="M 450 750 L 720 750" class="" stroke="rgba(41, 173, 255, 1)" id="7qu1hooy" style="fill: rgba(0, 0, 0, 0); stroke-width: 3; stroke-linejoin: round;" data-mut=""/><path d="M 450 765 L 720 765" class="" stroke="rgba(41, 173, 255, 1)" id="8604jg69" style="fill: rgba(0, 0, 0, 0); stroke-width: 3; stroke-linejoin: round;" data-mut=""/><path d="M 450 780 L 720 780" class="" stroke="rgba(41, 173, 255, 1)" id="us10uw9d" style="fill: rgba(0, 0, 0, 0); stroke-width: 3; stroke-linejoin: round;" data-mut=""/><path class="" id="2bwocqs0" d="M 840 405 A 105 105 0 0 1 945 510" style="stroke: var(--track-colour); fill: rgba(0, 0, 0, 0); stroke-width: 3; stroke-linejoin: round;" data-mut=""/><path class="" id="qlv19l96" d="M 945 630 A 105 105 0 0 0 1155 630" style="stroke: var(--track-colour); fill: rgba(0, 0, 0, 0); stroke-width: 3; stroke-linejoin: round;" data-mut=""/><path d="M 1155 630 L 1155 270" class="" stroke="rgba(41, 173, 255, 1)" id="4orvpwbe" style="fill: rgba(0, 0, 0, 0); stroke-width: 3; stroke-linejoin: round;" data-mut=""/><path d="M 945 510 L 945 630" class="" stroke="rgba(41, 173, 255, 1)" id="3hu9k3le" style="fill: rgba(0, 0, 0, 0); stroke-width: 3; stroke-linejoin: round;" data-mut=""/><path class="" id="ifzbmew9" d="M 960 630 A 90 90 0 0 0 1140 630" style="stroke: var(--track-colour); fill: rgba(0, 0, 0, 0); stroke-width: 3; stroke-linejoin: round;" data-mut=""/><path class="" id="k6sa4u3t" d="M 1125 630 A 75 75 0 1 1 975 630" style="stroke: var(--track-colour); fill: rgba(0, 0, 0, 0); stroke-width: 3; stroke-linejoin: round;" data-mut=""/><path class="" id="8v01cb9h" d="M 1110 630 A 60 60 0 1 1 990 630" style="stroke: var(--track-colour); fill: rgba(0, 0, 0, 0); stroke-width: 3; stroke-linejoin: round;" data-mut=""/><path class="" id="t7m9qpb5" d="M 1050 420 A 75 75 0 0 1 1125 495" style="stroke: var(--track-colour); fill: rgba(0, 0, 0, 0); stroke-width: 3; stroke-linejoin: round;" data-mut=""/><path class="" id="o2uymonk" d="M 1050 420 A 75 75 0 0 0 976.456449323181 480.2912898646362" style="stroke: var(--track-colour); fill: rgba(0, 0, 0, 0); stroke-width: 3; stroke-linejoin: round;" data-mut=""/><path class="" id="9aq26a6e" d="M 1050 420 A 75 75 0 0 0 975 495" style="stroke: var(--track-colour); fill: rgba(0, 0, 0, 0); stroke-width: 3; stroke-linejoin: round;" data-mut=""/><path class="" id="9z221hjv" d="M 960 495 A 90 90 0 1 1 1140 495" style="stroke: var(--track-colour); fill: rgba(0, 0, 0, 0); stroke-width: 3; stroke-linejoin: round;" data-mut=""/><path d="M 960 630 L 960 495" class="" stroke="rgba(41, 173, 255, 1)" id="tatiu58y" style="fill: rgba(0, 0, 0, 0); stroke-width: 3; stroke-linejoin: round;" data-mut=""/><path d="M 975 630 L 975 495" class="" stroke="rgba(41, 173, 255, 1)" id="x6o0245r" style="fill: rgba(0, 0, 0, 0); stroke-width: 3; stroke-linejoin: round;" data-mut=""/><path d="M 1140 630 L 1140 495" class="" stroke="rgba(41, 173, 255, 1)" id="3aczxr1j" style="fill: rgba(0, 0, 0, 0); stroke-width: 3; stroke-linejoin: round;" data-mut=""/><path class="" id="6lol55uy" d="M 1110 495 A 60 60 0 0 0 990 495" style="stroke: var(--track-colour); fill: rgba(0, 0, 0, 0); stroke-width: 3; stroke-linejoin: round;" data-mut=""/><path d="M 990 495 L 990 630" class="" stroke="rgba(41, 173, 255, 1)" id="9lsox0ah" style="fill: rgba(0, 0, 0, 0); stroke-width: 3; stroke-linejoin: round;" data-mut=""/><path class="" id="84sb4q31" d="M 1260 120 A 105 105 0 0 0 1155 225" style="stroke: var(--track-colour); fill: rgba(0, 0, 0, 0); stroke-width: 3; stroke-linejoin: round;" data-mut=""/><path class="" id="dh0emx6x" d="M 1260 150 A 75 75 0 0 0 1185 225" style="stroke: var(--track-colour); fill: rgba(0, 0, 0, 0); stroke-width: 3; stroke-linejoin: round;" data-mut=""/><path class="" id="ezeo3cpa" d="M 1260 135 A 90 90 0 0 0 1170 225" style="stroke: var(--track-colour); fill: rgba(0, 0, 0, 0); stroke-width: 3; stroke-linejoin: round;" data-mut=""/><path class="" id="zwa0wjiv" d="M 1260 165 A 60 60 0 0 0 1200 225" style="stroke: var(--track-colour); fill: rgba(0, 0, 0, 0); stroke-width: 3; stroke-linejoin: round;" data-mut=""/><path class="" id="5ubq7ymv" d="M 1260 165 A 60 60 0 0 1 1320 225" style="stroke: var(--track-colour); fill: rgba(0, 0, 0, 0); stroke-width: 3; stroke-linejoin: round;" data-mut=""/><path class="" id="vgs5pvqd" d="M 1260 150 A 75 75 0 0 1 1335 225" style="stroke: var(--track-colour); fill: rgba(0, 0, 0, 0); stroke-width: 3; stroke-linejoin: round;" data-mut=""/><path class="" id="59350ib9" d="M 1260 135 A 90 90 0 0 1 1350 225" style="stroke: var(--track-colour); fill: rgba(0, 0, 0, 0); stroke-width: 3; stroke-linejoin: round;" data-mut=""/><path class="" id="dalploto" d="M 1260 120 A 105 105 0 0 1 1365 225" style="stroke: var(--track-colour); fill: rgba(0, 0, 0, 0); stroke-width: 3; stroke-linejoin: round;" data-mut=""/><path d="M 1155 225 L 1155 270" class="" stroke="rgba(41, 173, 255, 1)" id="0z4fvvs2" style="fill: rgba(0, 0, 0, 0); stroke-width: 3; stroke-linejoin: round;" data-mut=""/><path d="M 1170 225 L 1170 390" class="" stroke="rgba(41, 173, 255, 1)" id="oiyw7hoh" style="fill: rgba(0, 0, 0, 0); stroke-width: 3; stroke-linejoin: round;" data-mut=""/><path d="M 1185 225 L 1185 390" class="" stroke="rgba(41, 173, 255, 1)" id="00jh5pt1" style="fill: rgba(0, 0, 0, 0); stroke-width: 3; stroke-linejoin: round;" data-mut=""/><path d="M 1200 225 L 1200 390" class="" stroke="rgba(41, 173, 255, 1)" id="khwf6d1q" style="fill: rgba(0, 0, 0, 0); stroke-width: 3; stroke-linejoin: round;" data-mut=""/><path d="M 1110 630 L 1110 495" class="" stroke="rgba(41, 173, 255, 1)" id="1ybwahrk" style="fill: rgba(0, 0, 0, 0); stroke-width: 3; stroke-linejoin: round;" data-mut=""/><path d="M 1125 495 L 1125 630" class="" stroke="rgba(41, 173, 255, 1)" id="co7yovv3" style="fill: rgba(0, 0, 0, 0); stroke-width: 3; stroke-linejoin: round;" data-mut=""/><path d="M 930 510 L 930 630" class="" stroke="rgba(41, 173, 255, 1)" id="4kqwncrr" style="fill: rgba(0, 0, 0, 0); stroke-width: 3; stroke-linejoin: round;" data-mut=""/><path class="" id="tjip8elk" d="M 930 630 A 120 120 0 0 0 1050 750" style="stroke: var(--track-colour); fill: rgba(0, 0, 0, 0); stroke-width: 3; stroke-linejoin: round;" data-mut=""/><path class="" id="on71c5ab" d="M 1365 645 A 105 105 0 0 1 1260 750" style="stroke: var(--track-colour); fill: rgba(0, 0, 0, 0); stroke-width: 3; stroke-linejoin: round;" data-mut=""/><path d="M 1050 750 L 1260 750" class="" stroke="rgba(41, 173, 255, 1)" id="v3146b3b" style="fill: rgba(0, 0, 0, 0); stroke-width: 3; stroke-linejoin: round;" data-mut=""/><path d="M 1050 735 L 1260 735" class="" stroke="rgba(41, 173, 255, 1)" id="hv96l7np" style="fill: rgba(0, 0, 0, 0); stroke-width: 3; stroke-linejoin: round;" data-mut=""/><path d="M 1365 225 L 1365 645" class="" stroke="rgba(41, 173, 255, 1)" id="lz75tj03" style="fill: rgba(0, 0, 0, 0); stroke-width: 3; stroke-linejoin: round;" data-mut=""/><path class="" id="enbwfgnh" d="M 1350 645 A 90 90 0 0 1 1260 735" style="stroke: var(--track-colour); fill: rgba(0, 0, 0, 0); stroke-width: 3; stroke-linejoin: round;" data-mut=""/><path class="" id="mwj205s5" d="M 1335 645 A 75 75 0 0 1 1186.456449323181 659.7087101353638" style="stroke: var(--track-colour); fill: rgba(0, 0, 0, 0); stroke-width: 3; stroke-linejoin: round;" data-mut=""/><path class="" id="1pgymto0" d="M 1185 645 A 75 75 0 0 0 1186.456449323181 659.7087101353638" style="stroke: var(--track-colour); fill: rgba(0, 0, 0, 0); stroke-width: 3; stroke-linejoin: round;" data-mut=""/><path class="" id="85l9eb4p" d="M 1320 645 A 60 60 0 1 1 1200 645" style="stroke: var(--track-colour); fill: rgba(0, 0, 0, 0); stroke-width: 3; stroke-linejoin: round;" data-mut=""/><path d="M 1200 390 L 1200 645" class="" stroke="rgba(41, 173, 255, 1)" id="1l6jhda1" style="fill: rgba(0, 0, 0, 0); stroke-width: 3; stroke-linejoin: round;" data-mut=""/><path d="M 1185 390 L 1185 645" class="" stroke="rgba(41, 173, 255, 1)" id="k00l1j2n" style="fill: rgba(0, 0, 0, 0); stroke-width: 3; stroke-linejoin: round;" data-mut=""/><path d="M 1170 390 L 1170 645" class="" stroke="rgba(41, 173, 255, 1)" id="8bniabda" style="fill: rgba(0, 0, 0, 0); stroke-width: 3; stroke-linejoin: round;" data-mut=""/><path d="M 1320 225 L 1320 645" class="" stroke="rgba(41, 173, 255, 1)" id="sil40ywf" style="fill: rgba(0, 0, 0, 0); stroke-width: 3; stroke-linejoin: round;" data-mut=""/><path d="M 1335 645 L 1335 225" class="" stroke="rgba(41, 173, 255, 1)" id="hiygid8k" style="fill: rgba(0, 0, 0, 0); stroke-width: 3; stroke-linejoin: round;" data-mut=""/><path d="M 1350 225 L 1350 645" class="" stroke="rgba(41, 173, 255, 1)" id="iqeu1vvh" style="fill: rgba(0, 0, 0, 0); stroke-width: 3; stroke-linejoin: round;" data-mut=""/><path class="" id="4m4iosdc" d="M 1170 645 A 90 90 0 0 0 1260 735" style="stroke: var(--track-colour); fill: rgba(0, 0, 0, 0); stroke-width: 3; stroke-linejoin: round;" data-mut=""/><path class="" id="mqoes1of" d="M 1050 675 A 45 45 0 0 1 1005 630" style="stroke: var(--track-colour); fill: rgba(0, 0, 0, 0); stroke-width: 3; stroke-linejoin: round;" data-mut=""/><path class="" id="vx0sqllo" d="M 1095 630 A 45 45 0 0 1 1050 675" style="stroke: var(--track-colour); fill: rgba(0, 0, 0, 0); stroke-width: 3; stroke-linejoin: round;" data-mut=""/><path class="" id="h6zmj6ku" d="M 1050 450 A 45 45 0 0 0 1005 495" style="stroke: var(--track-colour); fill: rgba(0, 0, 0, 0); stroke-width: 3; stroke-linejoin: round;" data-mut=""/><path class="" id="vc5niphj" d="M 1050 450 A 45 45 0 0 1 1095 495" style="stroke: var(--track-colour); fill: rgba(0, 0, 0, 0); stroke-width: 3; stroke-linejoin: round;" data-mut=""/><path class="" id="xyb99wms" d="M 660 465 A 45 45 0 0 0 660 555" style="stroke: var(--track-colour); fill: rgba(0, 0, 0, 0); stroke-width: 3; stroke-linejoin: round;" data-mut=""/><path class="" id="e5ki4uop" d="M 840 465 A 45 45 0 1 1 840 555" style="stroke: var(--track-colour); fill: rgba(0, 0, 0, 0); stroke-width: 3; stroke-linejoin: round;" data-mut=""/><path class="" id="v9x6j664" d="M 840 480 A 30 30 0 1 1 840 540" style="stroke: var(--track-colour); fill: rgba(0, 0, 0, 0); stroke-width: 3; stroke-linejoin: round;" data-mut=""/><path class="" id="ug60vr20" d="M 630 510 A 30 30 0 0 0 660 540" style="stroke: var(--track-colour); fill: rgba(0, 0, 0, 0); stroke-width: 3; stroke-linejoin: round;" data-mut=""/><path class="" id="7qfay5oe" d="M 630 510 A 30 30 0 0 1 660 480" style="stroke: var(--track-colour); fill: rgba(0, 0, 0, 0); stroke-width: 3; stroke-linejoin: round;" data-mut=""/><path d="M 660 465 L 840 465" class="" stroke="rgba(41, 173, 255, 1)" id="lr6jeim6" style="fill: rgba(0, 0, 0, 0); stroke-width: 3; stroke-linejoin: round;" data-mut=""/><path d="M 660 480 L 840 480" class="" stroke="rgba(41, 173, 255, 1)" id="9hoq5dlp" style="fill: rgba(0, 0, 0, 0); stroke-width: 3; stroke-linejoin: round;" data-mut=""/><path d="M 660 540 L 840 540" class="" stroke="rgba(41, 173, 255, 1)" id="na9x65os" style="fill: rgba(0, 0, 0, 0); stroke-width: 3; stroke-linejoin: round;" data-mut=""/><path d="M 660 555 L 840 555" class="" stroke="rgba(41, 173, 255, 1)" id="j9cp98fw" style="fill: rgba(0, 0, 0, 0); stroke-width: 3; stroke-linejoin: round;" data-mut=""/><path d="M 1005 495 L 1005 630" class="" stroke="rgba(41, 173, 255, 1)" id="no4nl8ip" style="fill: rgba(0, 0, 0, 0); stroke-width: 3; stroke-linejoin: round;" data-mut=""/><path d="M 1095 495 L 1095 645" class="" stroke="rgba(41, 173, 255, 1)" id="uogtrjo1" style="fill: rgba(0, 0, 0, 0); stroke-width: 3; stroke-linejoin: round;" data-mut=""/><path class="" id="bij1sk5a" d="M 1020 405 A 135 135 0 0 0 1020 135" style="stroke: var(--track-colour); fill: rgba(0, 0, 0, 0); stroke-width: 3; stroke-linejoin: round;" data-mut=""/><path d="M 1020 165 L 420 165" class="" stroke="rgba(41, 173, 255, 1)" id="bmx208jb" style="fill: rgba(0, 0, 0, 0); stroke-width: 3; stroke-linejoin: round;" data-mut=""/><path d="M 1020 150 L 420 150" class="" stroke="rgba(41, 173, 255, 1)" id="tarnm1ij" style="fill: rgba(0, 0, 0, 0); stroke-width: 3; stroke-linejoin: round;" data-mut=""/><path d="M 1020 135 L 420 135" class="" stroke="rgba(41, 173, 255, 1)" id="ddi304l7" style="fill: rgba(0, 0, 0, 0); stroke-width: 3; stroke-linejoin: round;" data-mut=""/><path d="M 1020 405 L 780 405" class="" stroke="rgba(41, 173, 255, 1)" id="c7lsl86a" style="fill: rgba(0, 0, 0, 0); stroke-width: 3; stroke-linejoin: round;" data-mut=""/><path class="" id="6eax496q" d="M 435 465 A 30 30 0 0 0 405 495" style="stroke: var(--track-colour); fill: rgba(0, 0, 0, 0); stroke-width: 3; stroke-linejoin: round;" data-mut=""/><path class="" id="fu11zeyd" d="M 465 495 A 30 30 0 0 0 435 465" style="stroke: var(--track-colour); fill: rgba(0, 0, 0, 0); stroke-width: 3; stroke-linejoin: round;" data-mut=""/><path class="" id="0jprcvar" d="M 405 675 A 45 45 0 0 0 450 720" style="stroke: var(--track-colour); fill: rgba(0, 0, 0, 0); stroke-width: 3; stroke-linejoin: round;" data-mut=""/><path class="" id="1b9nrmld" d="M 720 660 A 30 30 0 1 1 720 720" style="stroke: var(--track-colour); fill: rgba(0, 0, 0, 0); stroke-width: 3; stroke-linejoin: round;" data-mut=""/><path class="" id="j8endy1h" d="M 465 600 A 60 60 0 0 0 525 660" style="stroke: var(--track-colour); fill: rgba(0, 0, 0, 0); stroke-width: 3; stroke-linejoin: round;" data-mut=""/><path d="M 405 495 L 405 675" class="" stroke="rgba(41, 173, 255, 1)" id="07haiq5r" style="fill: rgba(0, 0, 0, 0); stroke-width: 3; stroke-linejoin: round;" data-mut=""/><path d="M 450 720 L 720 720" class="" stroke="rgba(41, 173, 255, 1)" id="slsoxxjf" style="fill: rgba(0, 0, 0, 0); stroke-width: 3; stroke-linejoin: round;" data-mut=""/><path d="M 525 660 L 720 660" class="" stroke="rgba(41, 173, 255, 1)" id="9pgdnb0t" style="fill: rgba(0, 0, 0, 0); stroke-width: 3; stroke-linejoin: round;" data-mut=""/><path d="M 465 495 L 465 600" class="" stroke="rgba(41, 173, 255, 1)" id="2x3rqr7d" style="fill: rgba(0, 0, 0, 0); stroke-width: 3; stroke-linejoin: round;" data-mut=""/><path class="" id="mzmwrihw" d="M 720 675 A 15 15 0 1 1 720 705" style="stroke: var(--track-colour); fill: rgba(0, 0, 0, 0); stroke-width: 3; stroke-linejoin: round;" data-mut=""/><path class="" id="rnq8je3i" d="M 420 495 A 15 15 0 1 1 450 495" style="stroke: var(--track-colour); fill: rgba(0, 0, 0, 0); stroke-width: 3; stroke-linejoin: round;" data-mut=""/><path class="" id="n25o9t10" d="M 420 675 A 30 30 0 0 0 450 705" style="stroke: var(--track-colour); fill: rgba(0, 0, 0, 0); stroke-width: 3; stroke-linejoin: round;" data-mut=""/><path d="M 450 705 L 720 705" class="" stroke="rgba(41, 173, 255, 1)" id="qqz27wph" style="fill: rgba(0, 0, 0, 0); stroke-width: 3; stroke-linejoin: round;" data-mut=""/><path d="M 420 495 L 420 675" class="" stroke="rgba(41, 173, 255, 1)" id="fan2oekl" style="fill: rgba(0, 0, 0, 0); stroke-width: 3; stroke-linejoin: round;" data-mut=""/><path d="M 450 495 L 450 600" class="" stroke="rgba(41, 173, 255, 1)" id="yj3x4urs" style="fill: rgba(0, 0, 0, 0); stroke-width: 3; stroke-linejoin: round;" data-mut=""/><path d="M 720 675 L 540 675" class="" stroke="rgba(41, 173, 255, 1)" id="l1l6eyuo" style="fill: rgba(0, 0, 0, 0); stroke-width: 3; stroke-linejoin: round;" data-mut=""/><path class="" id="wyufknpf" d="M 450 600 A 75 75 0 0 0 525 675" style="stroke: var(--track-colour); fill: rgba(0, 0, 0, 0); stroke-width: 3; stroke-linejoin: round;" data-mut=""/><path d="M 525 675 L 555 675" class="" stroke="rgba(41, 173, 255, 1)" id="cza0eoqn" style="fill: rgba(0, 0, 0, 0); stroke-width: 3; stroke-linejoin: round;" data-mut=""/><path class="" id="dhi4v08o" d="M 420 240 A 30 30 0 0 0 420 300" style="stroke: var(--track-colour); fill: rgba(0, 0, 0, 0); stroke-width: 3; stroke-linejoin: round;" data-mut=""/><path class="" id="xngm6srq" d="M 1020 240 A 30 30 0 1 1 1020 300" style="stroke: var(--track-colour); fill: rgba(0, 0, 0, 0); stroke-width: 3; stroke-linejoin: round;" data-mut=""/><path d="M 420 300 L 1020 300" class="" stroke="rgba(41, 173, 255, 1)" id="n5rm8i9l" style="fill: rgba(0, 0, 0, 0); stroke-width: 3; stroke-linejoin: round;" data-mut=""/><path d="M 420 240 L 1020 240" class="" stroke="rgba(41, 173, 255, 1)" id="px5xql91" style="fill: rgba(0, 0, 0, 0); stroke-width: 3; stroke-linejoin: round;" data-mut=""/><path class="" id="mrobb360" d="M 420 165 A 105 105 0 0 0 315 270" style="stroke: var(--track-colour); fill: rgba(0, 0, 0, 0); stroke-width: 3; stroke-linejoin: round;" data-mut=""/><path class="" id="4upy8su5" d="M 420 150 A 120 120 0 0 0 300 270" style="stroke: var(--track-colour); fill: rgba(0, 0, 0, 0); stroke-width: 3; stroke-linejoin: round;" data-mut=""/><path class="" id="cw1xna5m" d="M 420 135 A 135 135 0 0 0 285 270" style="stroke: var(--track-colour); fill: rgba(0, 0, 0, 0); stroke-width: 3; stroke-linejoin: round;" data-mut=""/><path d="M 315 270 L 315 585" class="" stroke="rgba(41, 173, 255, 1)" id="1zs8ku6i" style="fill: rgba(0, 0, 0, 0); stroke-width: 3; stroke-linejoin: round;" data-mut=""/><path class="" id="5j2i3w75" d="M 330 675 A 120 120 0 0 0 450 795" style="stroke: var(--track-colour); fill: rgba(0, 0, 0, 0); stroke-width: 3; stroke-linejoin: round;" data-mut=""/><path class="" id="fnsvhe5m" d="M 315 675 A 135 135 0 0 0 450 810" style="stroke: var(--track-colour); fill: rgba(0, 0, 0, 0); stroke-width: 3; stroke-linejoin: round;" data-mut=""/><path class="" id="kehn6o92" d="M 300 675 A 150 150 0 0 0 450 825" style="stroke: var(--track-colour); fill: rgba(0, 0, 0, 0); stroke-width: 3; stroke-linejoin: round;" data-mut=""/><path class="" id="dojqaupo" d="M 285 675 A 165 165 0 0 0 450 840" style="stroke: var(--track-colour); fill: rgba(0, 0, 0, 0); stroke-width: 3; stroke-linejoin: round;" data-mut=""/><path d="M 285 270 L 285 675" class="" stroke="rgba(41, 173, 255, 1)" id="tofpo5fp" style="fill: rgba(0, 0, 0, 0); stroke-width: 3; stroke-linejoin: round;" data-mut=""/><path d="M 300 270 L 300 675" class="" stroke="rgba(41, 173, 255, 1)" id="tngwd7ec" style="fill: rgba(0, 0, 0, 0); stroke-width: 3; stroke-linejoin: round;" data-mut=""/><path d="M 315 585 L 315 675" class="" stroke="rgba(41, 173, 255, 1)" id="ytivjd7q" style="fill: rgba(0, 0, 0, 0); stroke-width: 3; stroke-linejoin: round;" data-mut=""/><path class="" id="mrj2w2pp" d="M 1215 645 A 45 45 0 0 0 1305 645" style="stroke: var(--track-colour); fill: rgba(0, 0, 0, 0); stroke-width: 3; stroke-linejoin: round;" data-mut=""/><path class="" id="g167dj6z" d="M 1230 645 A 30 30 0 0 0 1290 645" style="stroke: var(--track-colour); fill: rgba(0, 0, 0, 0); stroke-width: 3; stroke-linejoin: round;" data-mut=""/><path class="" id="n4u0iohv" d="M 1260 180 A 45 45 0 0 0 1215 225" style="stroke: var(--track-colour); fill: rgba(0, 0, 0, 0); stroke-width: 3; stroke-linejoin: round;" data-mut=""/><path class="" id="p3dntfcn" d="M 1305 225 A 45 45 0 0 0 1260 180" style="stroke: var(--track-colour); fill: rgba(0, 0, 0, 0); stroke-width: 3; stroke-linejoin: round;" data-mut=""/><path class="" id="1istld12" d="M 1230 225 A 30 30 0 1 1 1290 225" style="stroke: var(--track-colour); fill: rgba(0, 0, 0, 0); stroke-width: 3; stroke-linejoin: round;" data-mut=""/><path d="M 1215 225 L 1215 645" class="" stroke="rgba(41, 173, 255, 1)" id="9oo71yq8" style="fill: rgba(0, 0, 0, 0); stroke-width: 3; stroke-linejoin: round;" data-mut=""/><path d="M 330 675 L 330 270" class="" stroke="rgba(41, 173, 255, 1)" id="yv9wh1w2" style="fill: rgba(0, 0, 0, 0); stroke-width: 3; stroke-linejoin: round;" data-mut=""/><path d="M 1230 645 L 1230 225" class="" stroke="rgba(41, 173, 255, 1)" id="f3tef9u4" style="fill: rgba(0, 0, 0, 0); stroke-width: 3; stroke-linejoin: round;" data-mut=""/><path d="M 1305 225 L 1305 645" class="" stroke="rgba(41, 173, 255, 1)" id="vz50bhki" style="fill: rgba(0, 0, 0, 0); stroke-width: 3; stroke-linejoin: round;" data-mut=""/><path class="" id="pwonn901" d="M 1305 855 A 7.5 7.5 0 0 0 1305 840" style="stroke: var(--track-colour); fill: rgba(0, 0, 0, 0); stroke-width: 3; stroke-linejoin: round;" data-mut=""/><path class="" id="k44x7npn" d="M 1305 870 A 22.5 22.5 0 0 0 1305 825" style="stroke: var(--track-colour); fill: rgba(0, 0, 0, 0); stroke-width: 3; stroke-linejoin: round;" data-mut=""/><path class="" id="q9sko1dw" d="M 1305 885 A 37.5 37.5 0 0 0 1305 810" style="stroke: var(--track-colour); fill: rgba(0, 0, 0, 0); stroke-width: 3; stroke-linejoin: round;" data-mut=""/><path class="" id="byrw9krx" d="M 1305 900 A 52.5 52.5 0 0 0 1305 795" style="stroke: var(--track-colour); fill: rgba(0, 0, 0, 0); stroke-width: 3; stroke-linejoin: round;" data-mut=""/><path d="M 450 840 L 1305 840" class="" stroke="rgba(41, 173, 255, 1)" id="5s2iff47" style="fill: rgba(0, 0, 0, 0); stroke-width: 3; stroke-linejoin: round;" data-mut=""/><path d="M 1305 900 L 660 900" class="" stroke="rgba(41, 173, 255, 1)" id="3k3p4y3j" style="fill: rgba(0, 0, 0, 0); stroke-width: 3; stroke-linejoin: round;" data-mut=""/><path d="M 1305 885 L 660 885" class="" stroke="rgba(41, 173, 255, 1)" id="730pm9nz" style="fill: rgba(0, 0, 0, 0); stroke-width: 3; stroke-linejoin: round;" data-mut=""/><path d="M 1305 870 L 660 870" class="" stroke="rgba(41, 173, 255, 1)" id="27wv4zvl" style="fill: rgba(0, 0, 0, 0); stroke-width: 3; stroke-linejoin: round;" data-mut=""/><path d="M 1305 855 L 660 855" class="" stroke="rgba(41, 173, 255, 1)" id="xe92hmmt" style="fill: rgba(0, 0, 0, 0); stroke-width: 3; stroke-linejoin: round;" data-mut=""/><path d="M 450 825 L 1305 825" class="" stroke="rgba(41, 173, 255, 1)" id="94wwiucy" style="fill: rgba(0, 0, 0, 0); stroke-width: 3; stroke-linejoin: round;" data-mut=""/><path d="M 1305 810 L 450 810" class="" stroke="rgba(41, 173, 255, 1)" id="355nwkou" style="fill: rgba(0, 0, 0, 0); stroke-width: 3; stroke-linejoin: round;" data-mut=""/><path d="M 450 795 L 1305 795" class="" stroke="rgba(41, 173, 255, 1)" id="kskg36rq" style="fill: rgba(0, 0, 0, 0); stroke-width: 3; stroke-linejoin: round;" data-mut=""/><path class="" id="ab118mux" d="M 1305 915 A 67.5 67.5 0 0 0 1305 780" style="stroke: var(--track-colour); fill: rgba(0, 0, 0, 0); stroke-width: 3; stroke-linejoin: round;"/><path d="M 720 780 L 1305 780" class="" stroke="rgba(41, 173, 255, 1)" id="aaw7j690" style="fill: rgba(0, 0, 0, 0); stroke-width: 3; stroke-linejoin: round;"/><path d="M 660 915 L 1305 915" class="" stroke="rgba(41, 173, 255, 1)" id="n7pk61xb" style="fill: rgba(0, 0, 0, 0); stroke-width: 3; stroke-linejoin: round;"/><path class="" id="whtlehkr" d="M 660 930 A 7.5 7.5 0 1 1 660 915" style="stroke: var(--track-colour); fill: rgba(0, 0, 0, 0); stroke-width: 3; stroke-linejoin: round;"/><path class="" id="60pc9u98" d="M 660 945 A 22.5 22.5 0 1 1 660 900" style="stroke: var(--track-colour); fill: rgba(0, 0, 0, 0); stroke-width: 3; stroke-linejoin: round;"/><path class="" id="8qwlhung" d="M 660 960 A 37.5 37.5 0 1 1 660 885" style="stroke: var(--track-colour); fill: rgba(0, 0, 0, 0); stroke-width: 3; stroke-linejoin: round;"/><path class="" id="72fdcdt0" d="M 660 975 A 52.5 52.5 0 1 1 660 870" style="stroke: var(--track-colour); fill: rgba(0, 0, 0, 0); stroke-width: 3; stroke-linejoin: round;"/><path class="" id="ze0gu3xx" d="M 660 990 A 67.5 67.5 0 1 1 660 855" style="stroke: var(--track-colour); fill: rgba(0, 0, 0, 0); stroke-width: 3; stroke-linejoin: round;"/><path d="M 660 990 L 1230 990" class="" stroke="rgba(41, 173, 255, 1)" id="4zxzdpn5" style="fill: rgba(0, 0, 0, 0); stroke-width: 3; stroke-linejoin: round;"/><path d="M 660 930 L 1230 930" class="" stroke="rgba(41, 173, 255, 1)" id="nybu5xd1" style="fill: rgba(0, 0, 0, 0); stroke-width: 3; stroke-linejoin: round;"/><path d="M 660 945 L 1230 945" class="" stroke="rgba(41, 173, 255, 1)" id="b171ba8k" style="fill: rgba(0, 0, 0, 0); stroke-width: 3; stroke-linejoin: round;"/><path d="M 660 960 L 1230 960" class="" stroke="rgba(41, 173, 255, 1)" id="5a957x9a" style="fill: rgba(0, 0, 0, 0); stroke-width: 3; stroke-linejoin: round;"/><path d="M 660 975 L 1230 975" class="" stroke="rgba(41, 173, 255, 1)" id="ztir5cym" style="fill: rgba(0, 0, 0, 0); stroke-width: 3; stroke-linejoin: round;"/><path d="M 1290 225 L 1290 645" class="" stroke="rgba(41, 173, 255, 1)" id="s9vifiph" style="fill: rgba(0, 0, 0, 0); stroke-width: 3; stroke-linejoin: round;"/></g></svg>